<?xml version="1.0" encoding="UTF-8"?>
<svg id="Layer_2" data-name="Layer 2" xmlns="http://www.w3.org/2000/svg" viewBox="0 0 461.78 461.78">
  <defs>
    <style>
      .cls-1 {
        fill: none;
      }

      .cls-1, .cls-2 {
        stroke-width: 0px;
      }

      .cls-2 {
        fill: #fff;
      }
    </style>
  </defs>
  <g id="Layer_2-2" data-name="Layer 2">
    <g>
      <g>
        <path class="cls-2" d="m15.4,108.76l1.12-1.94,4.21,2.44,1.92-3.33-4.21-2.44,1.12-1.94,10.3,5.96-1.12,1.94-4.24-2.45-1.93,3.33,4.24,2.45-1.12,1.94-10.3-5.96Z"/>
        <path class="cls-2" d="m33,97.84l-2.21,3.39,1.82,1.88-1.28,1.97-8.43-8.86,2.3-3.54,11.52,4.1-1.28,1.97-2.45-.9Zm-3.74,1.83l1.68-2.58-5.85-2.16-.17.26,4.34,4.48Z"/>
        <path class="cls-2" d="m43.19,87.8l-1.32,1.82-2.89-2.1c-.22-.16-.44-.23-.66-.22s-.43.16-.62.42l-1.52,2.09,3.63,2.64-1.32,1.82-9.63-6.99,2.68-3.69c.36-.5.74-.88,1.15-1.16.41-.28.83-.45,1.26-.53s.85-.06,1.26.04c.42.1.81.28,1.18.55l.33.24c.39.29.69.66.88,1.12.19.46.22.98.08,1.55l.25.18c.27-.29.58-.46.93-.49.35-.03.68.06,1,.3l3.33,2.42Zm-8.74.75l1.26-1.73c.32-.44.46-.85.42-1.23-.04-.38-.25-.71-.62-.98l-.17-.12c-.32-.23-.68-.32-1.08-.26-.4.06-.76.31-1.08.75l-1.26,1.73,2.53,1.84Z"/>
        <path class="cls-2" d="m36.06,77.53l2.71-3.36c.93-1.15,1.88-1.78,2.86-1.91.98-.12,2.03.27,3.15,1.17l2.7,2.18c1.12.9,1.72,1.85,1.81,2.84.08.99-.34,2.05-1.26,3.2l-2.71,3.36-1.68-1.36.71-.87-5.91-4.78-.71.87-1.67-1.35Zm10.3,2.78c.49-.61.69-1.15.6-1.62-.09-.47-.44-.96-1.05-1.45l-2.54-2.05c-.53-.43-1.03-.63-1.5-.61-.47.02-.95.34-1.44.94l-.6.74,5.92,4.79.6-.74Z"/>
        <path class="cls-2" d="m58.96,69l-2.61,2.91-7.09-5.64-1.21-1.09-.27.3,1.21,1.09,6.37,6.45-2.61,2.91-9.13-7.65,1.36-1.52,6.91,5.84,1.14,1.02.27-.3-1.14-1.02-6.37-6.45,2.41-2.68,7.09,5.64,1.14,1.02.27-.3-1.14-1.02-6.55-6.24,1.36-1.52,8.58,8.25Z"/>
        <path class="cls-2" d="m63.68,60.55l-2.85,2.87,1.4,2.21-1.66,1.66-6.43-10.41,2.98-2.99,10.43,6.39-1.66,1.66-2.22-1.39Zm-4.04,1.02l2.17-2.18-5.28-3.32-.22.22,3.33,5.28Z"/>
        <path class="cls-2" d="m75.7,52.83l-1.66,1.5-2.39-2.65c-.18-.2-.38-.32-.6-.35-.22-.03-.45.06-.7.28l-1.92,1.73,3.01,3.33-1.66,1.5-7.98-8.83,3.38-3.06c.45-.41.91-.71,1.37-.89.46-.19.91-.27,1.34-.26.43.01.84.11,1.23.3.39.18.73.44,1.04.78l.27.3c.33.36.54.79.63,1.28.09.49.01,1-.24,1.53l.21.23c.32-.23.66-.33,1.01-.29.35.04.65.2.92.5l2.76,3.05Zm-8.71-1.06l1.59-1.44c.4-.36.62-.74.66-1.12.04-.38-.1-.74-.41-1.08l-.14-.15c-.27-.29-.6-.45-1-.48-.4-.02-.81.15-1.21.51l-1.59,1.44,2.1,2.32Z"/>
        <path class="cls-2" d="m71.33,40.92l5.83-4.74,1.35,1.66-4.09,3.33,1.72,2.11,3.93-3.2,1.35,1.66-3.93,3.2,1.74,2.14,4.25-3.45,1.35,1.66-5.99,4.87-7.51-9.23Z"/>
      </g>
      <rect class="cls-1" width="461.78" height="461.78"/>
    </g>
  </g>
</svg>