<?xml version="1.0" encoding="UTF-8"?>
<svg id="Layer_2" data-name="Layer 2" xmlns="http://www.w3.org/2000/svg" viewBox="0 0 461.78 461.78">
  <defs>
    <style>
      .cls-1 {
        fill: none;
      }

      .cls-1, .cls-2 {
        stroke-width: 0px;
      }

      .cls-2 {
        fill: #fff;
      }
    </style>
  </defs>
  <g id="Layer_2-2" data-name="Layer 2">
    <g>
      <g>
        <path class="cls-2" d="m376.37,34.63c.28-.39.36-.83.26-1.33-.1-.5-.42-.94-.97-1.33-.46-.33-.9-.49-1.3-.49-.4,0-.72.16-.95.49-.12.17-.19.34-.22.52-.03.18,0,.38.09.6.09.22.23.47.44.74.21.27.48.59.84.95.89.9,1.45,1.76,1.68,2.58.23.81.05,1.65-.56,2.5l-.12.17c-.32.45-.69.81-1.11,1.06-.42.25-.88.4-1.36.44-.49.04-1-.02-1.53-.19-.53-.17-1.07-.44-1.62-.83-.64-.45-1.14-.94-1.5-1.46-.36-.52-.59-1.06-.69-1.61s-.08-1.1.06-1.64c.14-.55.38-1.08.74-1.59l.29-.42,1.83,1.29-.23.33c-.41.58-.57,1.17-.48,1.75.09.59.5,1.13,1.21,1.63.56.39,1.05.56,1.49.51.44-.05.78-.24,1.01-.58.11-.16.19-.33.23-.51.05-.18.04-.38-.02-.59-.06-.21-.17-.45-.35-.71-.18-.26-.43-.56-.75-.88-.43-.43-.81-.85-1.12-1.28-.31-.42-.54-.85-.69-1.28s-.18-.88-.11-1.33c.07-.45.27-.92.61-1.4l.06-.08c.28-.4.62-.71,1.02-.93s.83-.36,1.3-.4.96,0,1.47.16,1.02.41,1.53.77c.57.41,1.03.85,1.36,1.32.33.48.55.96.65,1.45.1.49.11.97,0,1.44-.1.47-.29.9-.57,1.3l-.35.5-1.83-1.29.23-.33Z"/>
        <path class="cls-2" d="m380.58,38.92c.95-1.21,2-1.91,3.13-2.1,1.14-.19,2.24.14,3.32.99,1.08.85,1.66,1.84,1.75,2.99s-.35,2.33-1.3,3.54l-1.64,2.09c-.98,1.25-2.03,1.96-3.15,2.13-1.12.17-2.22-.17-3.3-1.01s-1.67-1.84-1.77-2.97c-.1-1.13.34-2.32,1.32-3.57l1.64-2.09Zm.07,7.01c.32.25.63.41.92.48.3.07.58.06.86-.02.28-.08.55-.23.81-.45.26-.22.51-.48.75-.79l1.81-2.3c.23-.29.42-.59.56-.9.14-.31.22-.61.23-.9.01-.29-.04-.58-.17-.86-.13-.28-.34-.54-.64-.78-.3-.24-.61-.38-.91-.44-.3-.06-.59-.04-.87.04-.28.08-.55.23-.82.44-.27.21-.51.46-.74.76l-1.81,2.3c-.24.31-.44.62-.59.92-.15.3-.23.6-.24.89-.01.29.05.58.18.84.13.27.36.53.68.78Z"/>
        <path class="cls-2" d="m393.79,43.58l5.74,5.01-1.41,1.61-4.05-3.53-1.79,2.05,3.97,3.47-1.41,1.61-3.97-3.46-3.22,3.69-1.69-1.48,7.82-8.97Z"/>
        <path class="cls-2" d="m402.76,51.54l6.16,5.96-1.49,1.54-2.27-2.2-6.79,7.01-1.61-1.56,6.79-7.01-2.27-2.2,1.49-1.54Z"/>
        <path class="cls-2" d="m409.11,75.02l-2.67-2.86,6.25-6.56,1.19-1.11-.28-.3-1.19,1.11-6.99,5.76-2.66-2.86,8.43-8.41,1.39,1.49-6.43,6.36-1.12,1.04.28.3,1.12-1.04,6.99-5.76,2.46,2.64-6.25,6.56-1.12,1.04.28.3,1.12-1.04,6.8-5.97,1.39,1.49-8.99,7.81Z"/>
        <path class="cls-2" d="m417.11,80.47l-2.6-3.1-2.33,1.19-1.51-1.8,10.94-5.47,2.71,3.23-7.29,9.82-1.51-1.8,1.58-2.08Zm-.65-4.11l1.98,2.36,3.78-4.97-.2-.24-5.56,2.84Z"/>
        <path class="cls-2" d="m423.72,93.13l-1.35-1.79,2.85-2.15c.22-.16.35-.35.4-.57.05-.22-.02-.45-.22-.72l-1.55-2.06-3.58,2.7-1.35-1.79,9.5-7.16,2.74,3.64c.37.49.63.97.77,1.44.14.47.19.93.14,1.36-.05.43-.19.83-.41,1.2-.22.37-.51.69-.87.96l-.33.25c-.39.29-.83.46-1.33.51-.5.05-1-.08-1.51-.38l-.24.18c.2.34.27.69.2,1.03-.07.34-.26.63-.58.87l-3.29,2.48Zm1.84-8.58l1.29,1.71c.33.43.68.69,1.05.76s.75-.03,1.12-.31l.16-.12c.32-.24.51-.56.57-.96.06-.4-.07-.82-.4-1.25l-1.29-1.71-2.5,1.88Z"/>
        <path class="cls-2" d="m435.98,89.84l4.2,6.23-1.78,1.2-2.95-4.37-2.25,1.52,2.83,4.2-1.77,1.2-2.84-4.2-2.28,1.54,3.06,4.54-1.78,1.2-4.32-6.4,9.86-6.66Z"/>
      </g>
      <rect class="cls-1" width="461.78" height="461.78"/>
    </g>
  </g>
</svg>