<?xml version="1.0" encoding="UTF-8"?>
<svg id="Layer_2" data-name="Layer 2" xmlns="http://www.w3.org/2000/svg" xmlns:xlink="http://www.w3.org/1999/xlink" viewBox="0 0 461.78 461.78">
  <defs>
    <style>
      .cls-1 {
        fill: #29aae1;
      }

      .cls-1, .cls-2, .cls-3, .cls-4, .cls-5, .cls-6, .cls-7, .cls-8, .cls-9, .cls-10 {
        stroke-width: 0px;
      }

      .cls-1, .cls-8 {
        fill-rule: evenodd;
      }

      .cls-2 {
        fill: url(#linear-gradient);
      }

      .cls-11 {
        filter: url(#drop-shadow-4);
      }

      .cls-12 {
        filter: url(#drop-shadow-3);
      }

      .cls-3 {
        fill: none;
        opacity: .02;
      }

      .cls-13 {
        filter: url(#drop-shadow-1);
      }

      .cls-4 {
        fill: #a70c2f;
      }

      .cls-5, .cls-8 {
        fill: #fff;
      }

      .cls-14 {
        filter: url(#drop-shadow-5);
      }

      .cls-6 {
        fill: url(#linear-gradient-2);
      }

      .cls-7 {
        fill: #fcce17;
      }

      .cls-15 {
        filter: url(#drop-shadow-2);
      }

      .cls-9 {
        fill: #908e8f;
      }

      .cls-10 {
        fill: #2578ba;
      }
    </style>
    <filter id="drop-shadow-1" filterUnits="userSpaceOnUse">
      <feOffset dx="0" dy="0"/>
      <feGaussianBlur result="blur" stdDeviation="6"/>
      <feFlood flood-color="#000" flood-opacity=".75"/>
      <feComposite in2="blur" operator="in"/>
      <feComposite in="SourceGraphic"/>
    </filter>
    <filter id="drop-shadow-2" filterUnits="userSpaceOnUse">
      <feOffset dx="2" dy="2"/>
      <feGaussianBlur result="blur-2" stdDeviation="4"/>
      <feFlood flood-color="#000" flood-opacity="1"/>
      <feComposite in2="blur-2" operator="in"/>
      <feComposite in="SourceGraphic"/>
    </filter>
    <filter id="drop-shadow-3" filterUnits="userSpaceOnUse">
      <feOffset dx="2" dy="2"/>
      <feGaussianBlur result="blur-3" stdDeviation="4"/>
      <feFlood flood-color="#000" flood-opacity="1"/>
      <feComposite in2="blur-3" operator="in"/>
      <feComposite in="SourceGraphic"/>
    </filter>
    <filter id="drop-shadow-4" filterUnits="userSpaceOnUse">
      <feOffset dx="2" dy="2"/>
      <feGaussianBlur result="blur-4" stdDeviation="4"/>
      <feFlood flood-color="#000" flood-opacity="1"/>
      <feComposite in2="blur-4" operator="in"/>
      <feComposite in="SourceGraphic"/>
    </filter>
    <filter id="drop-shadow-5" filterUnits="userSpaceOnUse">
      <feOffset dx="2" dy="2"/>
      <feGaussianBlur result="blur-5" stdDeviation="4"/>
      <feFlood flood-color="#000" flood-opacity="1"/>
      <feComposite in2="blur-5" operator="in"/>
      <feComposite in="SourceGraphic"/>
    </filter>
    <linearGradient id="linear-gradient" x1="369.25" y1="2449.23" x2="388.92" y2="2428.98" gradientTransform="translate(0 2572.65) scale(1 -1)" gradientUnits="userSpaceOnUse">
      <stop offset=".21" stop-color="#f05a24"/>
      <stop offset=".68" stop-color="#faaf3b"/>
    </linearGradient>
    <linearGradient id="linear-gradient-2" x1="347.06" y1="2423.83" x2="327.39" y2="2444.09" gradientTransform="translate(0 2572.65) scale(1 -1)" gradientUnits="userSpaceOnUse">
      <stop offset=".21" stop-color="#ec1e79"/>
      <stop offset=".89" stop-color="#522784"/>
    </linearGradient>
  </defs>
  <g id="Layer_2-2" data-name="Layer 2">
    <circle class="cls-3" cx="230.89" cy="230.89" r="230.89"/>
    <g class="cls-13">
      <path class="cls-5" d="m59.36,272.98v2.34h15.1v-2.41h-10.7l10.45-7.23v-2.98l-14.85,10.28Z"/>
      <path class="cls-5" d="m127.55,260.19l3.02,8.35h-6.05l3.03-8.35h-2.88l-5.74,15.13h3.11l1.39-4.35h8.26l1.39,4.35h3.14l-5.64-15.13h-3.03Z"/>
      <path class="cls-5" d="m115.95,260.19h-2.94v15.13h2.94v-15.13Z"/>
      <path class="cls-5" d="m104.88,275.32l-4.65-15.13h2.69l3.7,12.29,3.7-12.29h2.69l-4.65,15.13h-3.49Z"/>
      <path class="cls-5" d="m100.23,260.19h-2.94v15.13h2.94v-15.13Z"/>
      <path class="cls-5" d="m85.42,260.19l3.03,8.35h-6.05l3.02-8.35h-2.88l-5.74,15.13h3.11l1.39-4.35h8.25l1.39,4.35h3.14l-5.64-15.13h-3.03Z"/>
      <path class="cls-5" d="m59.61,260.19v2.58l14.6-.07v-2.51h-14.6Z"/>
    </g>
    <g class="cls-15">
      <g id="g3072">
        <path id="path2882" class="cls-4" d="m218.47,247.61v32.43h6.85v-32.43h-6.85Z"/>
        <path id="path2888" class="cls-4" d="m229.64,247.61v22.15h6.85v-22.15h-6.85Z"/>
        <g id="use2886">
          <path id="path2882-2" data-name="path2882" class="cls-4" d="m240.81,247.61v32.43h6.85v-32.43h-6.85Z"/>
        </g>
        <path id="path2982" class="cls-4" d="m251.94,247.61v6.49h6.89v-6.49h-6.89Z"/>
        <path id="path2486" class="cls-9" d="m251.99,257.85v22.15h6.85v-22.15h-6.85Z"/>
        <path id="path2416" class="cls-4" d="m263.1,247.61v6.49h18.06v-6.49h-18.06Z"/>
        <g id="use2984">
          <path id="path2888-2" data-name="path2888" class="cls-4" d="m263.15,257.88v22.15h6.85v-22.15h-6.85Z"/>
        </g>
      </g>
      <g id="g3036">
        <path id="M" class="cls-5" d="m220.12,287.87v6.43h1.56l-.09-4.06c-.03-.61-.03-.72-.05-1.23l.28,1.15,1.17,4.13h1.38l1.22-4.32c.07-.27.08-.32.16-.68l.05-.23v.64s-.12,4.59-.12,4.59h1.54v-6.43h-2.34l-1.03,3.84c-.07.3-.07.35-.16.79l-.23-1.02-.99-3.61h-2.35Z"/>
        <path id="a" class="cls-5" d="m230.51,289.42c-.56,0-1.11.07-1.55.41-.43.34-.47.73-.5,1.06h1.4c.04-.17.12-.56.74-.56.5,0,.53.37.54.58v.26c-.59.11-1.5.27-1.88.43-.39.16-1.01.6-1.01,1.37,0,.67.47,1.45,1.56,1.45.7,0,1.1-.3,1.45-.56v.43h1.38c-.11-.16-.14-.24-.14-.75v-2.77c0-1.23-1.41-1.37-2-1.37h0Zm.63,2.6c0,.49-.04.92-.5,1.22-.15.09-.3.16-.47.16-.33,0-.53-.26-.53-.49,0-.36.36-.49.6-.58l.91-.31h0Z"/>
        <path id="s" class="cls-5" d="m235.49,289.39c-1.33,0-2.01.81-2.01,1.59,0,.36.15.68.36.89.21.21.5.33.79.41.21.06.43.12.64.15.27.05.6.06.81.17.08.05.18.12.18.28,0,.36-.52.47-.86.47-.53,0-1-.29-1.38-.66l-.89.8c.3.28.99.92,2.31.92,1.12,0,2.25-.55,2.25-1.67,0-1.13-1.1-1.39-2.06-1.56-.46-.08-.76-.13-.76-.4,0-.14.13-.36.67-.36.33,0,.75.13,1.19.48l.87-.8c-.33-.23-1.01-.72-2.13-.72Z"/>
        <g id="s2">
          <path id="s-2" data-name="s" class="cls-5" d="m240.24,289.39c-1.33,0-2.01.81-2.01,1.59,0,.36.15.68.36.89.21.21.5.33.79.41.21.06.43.12.64.15.27.05.6.06.81.17.08.05.18.12.18.28,0,.36-.52.47-.86.47-.53,0-1-.29-1.38-.66l-.89.8c.3.28.99.92,2.31.92,1.12,0,2.25-.55,2.25-1.67,0-1.13-1.1-1.39-2.06-1.56-.46-.08-.76-.13-.76-.4,0-.14.13-.36.67-.36.33,0,.75.13,1.19.48l.87-.8c-.33-.23-1.01-.72-2.13-.72Z"/>
        </g>
        <g id="a2">
          <path id="a-2" data-name="a" class="cls-5" d="m245.32,289.42c-.56,0-1.11.07-1.55.41-.43.34-.47.73-.5,1.06h1.4c.04-.17.12-.56.74-.56.5,0,.53.37.54.58v.26c-.59.11-1.5.27-1.88.43-.39.16-1.01.6-1.01,1.37,0,.67.47,1.45,1.56,1.45.7,0,1.1-.3,1.45-.56v.43h1.38c-.11-.16-.14-.24-.14-.75v-2.77c0-1.23-1.41-1.37-2-1.37h0Zm.63,2.6c0,.49-.04.92-.5,1.22-.15.09-.3.16-.47.16-.33,0-.53-.26-.53-.49,0-.36.36-.49.6-.58l.91-.31h0Z"/>
        </g>
        <path id="c" class="cls-5" d="m250.67,289.42c-1.59,0-2.39,1.16-2.39,2.55,0,1.94,1.44,2.48,2.35,2.48.54,0,1-.17,1.37-.42.38-.27.58-.57.75-.85l-1.05-.55c-.05.14-.1.24-.22.38-.29.33-.63.34-.71.34-.75,0-1.06-.79-1.06-1.42,0-.57.26-1.44,1.02-1.44.22,0,.38.07.52.16.23.16.32.33.4.5l1.04-.59c-.6-.99-1.5-1.14-2.03-1.14Z"/>
        <path id="h" class="cls-5" d="m252.97,287.86v6.44h1.41v-2.37c0-.41,0-.81.18-1.05.12-.15.33-.27.58-.27.15,0,.51.04.65.47.05.16.07.36.07.74v2.48h1.39v-3.12c0-.62-.07-1.07-.49-1.42-.28-.24-.66-.34-1.01-.34-.76,0-1.17.43-1.37.63v-2.19h-1.41Z"/>
        <path id="u" class="cls-5" d="m258.44,289.54v2.99c0,.77.05,1.05.29,1.4.33.46.91.51,1.22.51.31,0,.62-.08.9-.23.26-.13.34-.21.48-.37v.46h1.4v-4.76h-1.4v2.96c0,.25-.02.5-.33.68-.21.12-.39.12-.48.12-.28,0-.47-.13-.55-.24-.11-.15-.11-.35-.11-.56v-2.96h-1.42Z"/>
        <g id="s3">
          <path id="s-3" data-name="s" class="cls-5" d="m265.69,289.39c-1.33,0-2.01.81-2.01,1.59,0,.36.15.68.36.89.21.21.5.33.79.41.21.06.43.12.64.15.27.05.6.06.81.17.08.05.18.12.18.28,0,.36-.52.47-.86.47-.53,0-1-.29-1.38-.66l-.89.8c.3.28.99.92,2.31.92,1.12,0,2.25-.55,2.25-1.67,0-1.13-1.1-1.39-2.06-1.56-.46-.08-.76-.13-.76-.4,0-.14.13-.36.67-.36.33,0,.75.13,1.19.48l.87-.8c-.33-.23-1.01-.72-2.13-.72Z"/>
        </g>
        <path id="e" class="cls-5" d="m270.85,289.39c-1.88,0-2.44,1.48-2.44,2.63,0,1.56.98,2.46,2.4,2.46.77,0,1.39-.29,1.8-.67.25-.23.41-.47.57-.72l-1.06-.53c-.17.34-.44.84-1.21.84s-1.1-.59-1.09-1.18h3.41c-.02-.54-.05-1.47-.67-2.14-.61-.66-1.43-.68-1.71-.68Zm-.01,1.01c.25,0,.51.09.68.26.2.21.23.47.26.67h-1.94c.05-.2.09-.42.28-.63.14-.15.38-.31.71-.31Z"/>
        <path id="t" class="cls-5" d="m274.23,288.17v1.48h-.69v.86h.69v2.29c0,.45,0,.79.2,1.07.3.44.83.47,1.31.47.26,0,.44-.02.74-.07v-1.1h-.5c-.37.01-.37-.23-.36-.52v-2.15h.92v-.85h-.92v-1.49h-1.39Z"/>
        <g id="t2">
          <path id="t-2" data-name="t" class="cls-5" d="m277.09,288.17v1.48h-.69v.86h.69v2.29c0,.45,0,.79.2,1.07.3.44.83.47,1.31.47.26,0,.44-.02.74-.07v-1.1h-.5c-.37.01-.37-.23-.36-.52v-2.15h.92v-.85h-.92v-1.49h-1.39Z"/>
        </g>
        <g id="s4">
          <path id="s-4" data-name="s" class="cls-5" d="m281.84,289.39c-1.33,0-2.01.81-2.01,1.59,0,.36.15.68.36.89.21.21.5.33.79.41.21.06.43.12.64.15.27.05.6.06.81.17.08.05.18.12.18.28,0,.36-.52.47-.86.47-.53,0-1-.29-1.38-.66l-.89.8c.3.28.99.92,2.31.92,1.12,0,2.25-.55,2.25-1.67,0-1.13-1.1-1.39-2.06-1.56-.46-.08-.76-.13-.76-.4,0-.14.13-.36.67-.36.33,0,.75.13,1.19.48l.87-.8c-.33-.23-1.01-.72-2.13-.72Z"/>
        </g>
        <path id="I" class="cls-5" d="m220.11,298.8v6.43h1.61v-6.43h-1.61Z"/>
        <g id="n">
          <path id="u-2" data-name="u" class="cls-5" d="m227.25,305.25v-2.99c0-.77-.05-1.05-.29-1.4-.33-.46-.91-.51-1.22-.51-.31,0-.62.08-.9.23-.26.13-.34.21-.48.37v-.46h-1.4v4.76h1.4v-2.96c0-.25.02-.5.33-.68.21-.12.39-.12.48-.12.28,0,.47.13.55.24.11.15.11.35.11.56v2.96h1.42Z"/>
        </g>
        <g id="s5">
          <path id="s-5" data-name="s" class="cls-5" d="m230.19,300.32c-1.33,0-2.01.81-2.01,1.59,0,.36.15.68.36.89.21.21.5.33.79.41.21.06.43.12.64.15.27.05.6.06.81.17.08.05.18.12.18.28,0,.36-.52.47-.86.47-.53,0-1-.29-1.38-.66l-.89.8c.3.28.99.92,2.31.92,1.12,0,2.25-.55,2.25-1.67,0-1.13-1.1-1.39-2.06-1.56-.46-.08-.76-.13-.76-.4,0-.14.13-.36.67-.36.33,0,.75.13,1.19.48l.87-.8c-.33-.23-1.01-.72-2.13-.72Z"/>
        </g>
        <g id="t3">
          <path id="t-3" data-name="t" class="cls-5" d="m233.4,299.11v1.48h-.69v.86h.69v2.29c0,.45,0,.79.2,1.07.3.44.83.47,1.31.47.26,0,.44-.02.74-.07v-1.1h-.5c-.37.01-.37-.23-.36-.52v-2.15h.92v-.85h-.92v-1.49h-1.39Z"/>
        </g>
        <path id="i" class="cls-5" d="m236.47,298.79v1.09h1.39v-1.09h-1.39Zm0,1.68v4.76h1.39v-4.76h-1.39Z"/>
        <g id="t4">
          <path id="t-4" data-name="t" class="cls-5" d="m239.29,299.11v1.48h-.69v.86h.69v2.29c0,.45,0,.79.2,1.07.3.44.83.47,1.31.47.26,0,.44-.02.74-.07v-1.1h-.5c-.37.01-.37-.23-.36-.52v-2.15h.92v-.85h-.92v-1.49h-1.39Z"/>
        </g>
        <g id="u2">
          <path id="u-3" data-name="u" class="cls-5" d="m242.3,300.48v2.99c0,.77.05,1.05.29,1.4.33.46.91.51,1.22.51.31,0,.62-.08.9-.23.26-.13.34-.21.48-.37v.46h1.4v-4.76h-1.4v2.96c0,.25-.02.5-.33.68-.21.12-.39.12-.48.12-.28,0-.47-.13-.55-.24-.11-.15-.11-.35-.11-.56v-2.96h-1.42Z"/>
        </g>
        <g id="t5">
          <path id="t-5" data-name="t" class="cls-5" d="m248.02,299.11v1.48h-.69v.86h.69v2.29c0,.45,0,.79.2,1.07.3.44.83.47,1.31.47.26,0,.44-.02.74-.07v-1.1h-.5c-.37.01-.37-.23-.36-.52v-2.15h.92v-.85h-.92v-1.49h-1.39Z"/>
        </g>
        <g id="e2">
          <path id="e-2" data-name="e" class="cls-5" d="m253.19,300.32c-1.88,0-2.44,1.48-2.44,2.63,0,1.56.98,2.46,2.4,2.46.77,0,1.39-.29,1.8-.67.25-.23.41-.47.57-.72l-1.06-.53c-.17.34-.44.84-1.21.84s-1.1-.59-1.09-1.18h3.41c-.02-.54-.05-1.47-.67-2.14-.61-.66-1.43-.68-1.71-.68Zm-.01,1.01c.25,0,.51.09.68.26.2.21.23.47.26.67h-1.94c.05-.2.09-.42.28-.63.14-.15.38-.31.71-.31Z"/>
        </g>
        <path id="o" class="cls-5" d="m261.1,300.33c-.06,0-.11,0-.17,0-1.6.05-2.41,1.15-2.41,2.52,0,1.76,1.22,2.53,2.56,2.53,1.86,0,2.55-1.33,2.55-2.53,0-.87-.43-2.41-2.37-2.52-.06,0-.11,0-.17,0Zm-.02,1.11c.2,0,.49.04.74.28.26.26.39.67.39,1.2,0,.75-.37,1.35-1.13,1.35s-1.15-.67-1.15-1.42c0-.33.07-.66.24-.93.19-.3.43-.44.83-.47.03,0,.05,0,.08,0h0Z"/>
        <path id="f" class="cls-5" d="m266.2,298.71c-.66,0-1.05.25-1.23.49-.18.25-.2.58-.2.81v.59h-.76v.85h.75v3.8h1.4v-3.8h.92v-.85h-.93c0-.64.01-.75.54-.75h.34v-1.05c-.27-.04-.55-.09-.84-.09Z"/>
        <path id="T" class="cls-5" d="m218.47,309.73v1.28h1.68v5.16h1.61v-5.16h1.67v-1.28h-4.96Z"/>
        <g id="e5">
          <path id="e-3" data-name="e" class="cls-5" d="m225.52,311.26c-1.88,0-2.44,1.48-2.44,2.63,0,1.56.98,2.46,2.4,2.46.77,0,1.39-.29,1.8-.67.25-.23.41-.47.57-.72l-1.06-.53c-.17.34-.44.84-1.21.84s-1.1-.59-1.09-1.18h3.41c-.02-.54-.05-1.47-.67-2.14-.61-.66-1.43-.68-1.71-.68Zm-.01,1.01c.25,0,.51.09.68.26.2.21.23.47.26.67h-1.94c.05-.2.09-.42.28-.63.14-.15.38-.31.71-.31Z"/>
        </g>
        <g id="c2">
          <path id="c-2" data-name="c" class="cls-5" d="m230.78,311.29c-1.59,0-2.39,1.16-2.39,2.55,0,1.94,1.44,2.48,2.35,2.48.54,0,1-.17,1.37-.42.38-.27.58-.57.75-.85l-1.05-.55c-.05.14-.1.24-.22.38-.29.33-.63.34-.71.34-.75,0-1.06-.79-1.06-1.42,0-.57.26-1.44,1.02-1.44.22,0,.38.07.52.16.23.16.32.33.4.5l1.04-.59c-.6-.99-1.5-1.14-2.03-1.14Z"/>
        </g>
        <g id="h2">
          <path id="h-2" data-name="h" class="cls-5" d="m233.09,309.73v6.44h1.41v-2.37c0-.41,0-.81.18-1.05.12-.15.33-.27.58-.27.15,0,.51.04.65.47.05.16.07.36.07.74v2.48h1.39v-3.12c0-.62-.07-1.07-.49-1.42-.28-.24-.66-.34-1.01-.34-.76,0-1.17.43-1.37.63v-2.19h-1.41Z"/>
        </g>
        <g id="n2">
          <path id="u-4" data-name="u" class="cls-5" d="m242.88,316.19v-2.99c0-.77-.05-1.05-.29-1.4-.33-.46-.91-.51-1.22-.51-.31,0-.62.08-.9.23-.26.13-.34.21-.48.37v-.46h-1.4v4.76h1.4v-2.96c0-.25.02-.5.33-.68.21-.12.39-.12.48-.12.28,0,.47.13.55.24.11.15.11.35.11.56v2.96h1.42Z"/>
        </g>
        <g id="o2">
          <path id="o-2" data-name="o" class="cls-5" d="m246.34,311.27c-.06,0-.11,0-.17,0-1.6.05-2.41,1.15-2.41,2.52,0,1.76,1.22,2.53,2.56,2.53,1.86,0,2.55-1.33,2.55-2.53,0-.87-.43-2.41-2.37-2.52-.06,0-.11,0-.17,0Zm-.02,1.11c.2,0,.49.04.74.28.26.26.39.67.39,1.2,0,.75-.37,1.35-1.13,1.35s-1.15-.67-1.15-1.42c0-.33.07-.66.24-.93.19-.3.43-.44.83-.47.03,0,.05,0,.08,0h0Z"/>
        </g>
        <path id="l" class="cls-5" d="m249.79,309.74v6.43h1.41v-6.43h-1.41Z"/>
        <g id="o3">
          <path id="o-3" data-name="o" class="cls-5" d="m254.7,311.27c-.06,0-.11,0-.17,0-1.6.05-2.41,1.15-2.41,2.52,0,1.76,1.22,2.53,2.56,2.53,1.86,0,2.55-1.33,2.55-2.53,0-.87-.43-2.41-2.37-2.52-.06,0-.11,0-.17,0Zm-.02,1.11c.2,0,.49.04.74.28.26.26.39.67.39,1.2,0,.75-.37,1.35-1.13,1.35s-1.15-.67-1.15-1.42c0-.33.07-.66.24-.93.19-.3.43-.44.83-.47.03,0,.05,0,.08,0h0Z"/>
        </g>
        <path id="g" class="cls-5" d="m259.84,311.33c-1.58,0-2.02,1.38-2.02,2.33,0,.82.24,1.55.88,1.96.31.21.69.32,1.09.32.65,0,.99-.22,1.26-.4v.51c0,.39,0,.89-.85.89-.22,0-.35-.04-.44-.09-.37-.17-.39-.47-.41-.68h-1.45c0,.26,0,.73.37,1.11.25.26.87.6,1.82.6.43,0,1.14-.08,1.63-.37.69-.4.71-1.01.73-1.53v-4.57h-1.31v.44c-.21-.2-.55-.52-1.28-.52Zm.26,1.04c.4-.02.65.18.76.35.15.23.17.71.17.93,0,.67-.16,1.23-.87,1.23-.87,0-.9-.82-.9-1.23,0-.67.17-1.25.83-1.28Z"/>
        <path id="y" class="cls-5" d="m263.04,311.41l1.42,4.6c.03.1.07.22.07.34,0,.34-.36.34-.59.35h-.49v1.11h1.01c.36,0,.68-.02,1.01-.38.24-.26.33-.56.44-.87l1.68-5.14h-1.5l-.78,3.42-.78-3.42h-1.5Z"/>
      </g>
    </g>
    <g class="cls-12">
      <path class="cls-5" d="m184.09,378.92c1.56-.44,3.07-1.03,4.6-1.57.28-.1.64-.39.84-.2.2.2-.14.54-.21.83-.07.3-.3.43-.58.52-1.74.59-3.47,1.2-5.21,1.78-.37.12-.45.22-.15.53.27.28.61.51.73.92.07.24.26.09.38.05,1.09-.37,2.17-.75,3.25-1.13.14-.05.3-.19.42-.06.11.13-.04.28-.08.42-.14.59-.5.9-1.09,1.08-1.45.44-2.87.96-4.31,1.42-.36.11-.36.2-.13.47.95,1.1.94,1.1,2.31.64.54-.18,1.07-.37,1.6-.55.1-.03.21-.1.3-.02.1.09,0,.2-.02.3-.17.61-.46,1.08-1.16,1.19-.22.04-.43.16-.65.21-.54.14-1.01.31-.85,1.02.01.06-.02.17-.07.2-.1.07-.18-.02-.22-.09-.38-.62-.88-.52-1.46-.32-.88.3-.84.23-.27.95.51.64,1.03.78,1.76.42.38-.19.81-.28,1.22-.41.11-.03.24-.14.34-.02.09.11-.03.23-.05.34-.14.66-.55,1.02-1.21,1.13-.32.05-.49.12-.19.51.34.46.21,1.06.1,1.59-.15.69-.49,1.24-1.31,1.31-.22.02-.45.1-.65.2-.77.39-1.48.17-2.18-.19-.09-.05-.24-.05-.23-.19,0-.14.16-.13.25-.15,1.14-.34,2.28-.69,3.43-1.02.36-.1.4-.19.13-.49-1.01-1.09-.99-1.09-2.42-.64-.32.1-.33.19-.1.41.22.21.43.44.63.66.06.06.15.13.1.23-.04.1-.15.09-.24.1-.63.06-1.23.03-1.62-.58-.23-.36-.53-.38-.91-.26-.4.13-.82.2-1.25.31.29.51.28.52-.28.54-.45.02-.85-.03-1.23-.36-.26-.23-.66-.3-1-.44-.13-.06-.3-.07-.38-.24.13-.17.38-.08.55-.26-.44-.47-.89-.95-1.34-1.42-.09-.1-.22-.11-.34-.1-.53.03-1.07.05-1.6.11-.36.04-.13.22-.03.32.6.64,1.2,1.26,1.79,1.9.1.11.32.21.23.4-.07.15-.28.07-.42.09-.6.09-1.04-.13-1.43-.59-.58-.69-1.23-1.32-1.83-1.99-.3-.33-.71-.41-1.08-.57-.39-.17-.78-.32-1.3-.53.46-.16.81-.02,1.23-.13-.6-.63-1.15-1.23-1.72-1.81-.09-.09-.28-.1-.43-.12-.65-.07-1.3-.13-2.08-.21.72.8,1.36,1.51,2.01,2.21,1.03,1.11,2.07,2.21,3.1,3.32.09.09.26.17.19.33-.07.15-.24.08-.37.1-.62.09-1.09-.12-1.52-.61-1.59-1.79-3.24-3.55-4.85-5.33-.23-.25-.48-.4-.81-.46-.71-.14-1.42-.31-2.18-.37.61.7,1.21,1.4,1.83,2.09,1.24,1.36,2.49,2.7,3.73,4.05.1.11.2.23.3.35.13.16.07.27-.11.27-.55.01-1.06.09-1.54-.43-2.05-2.25-4.11-4.49-6.08-6.81-.08-.09-.16-.2-.27-.24-.98-.41-1.97-.8-3-1.22-.03.26.13.36.22.47,2.04,2.53,4.2,4.94,6.41,7.31.19.2.37.41.55.61.18.2.11.3-.13.31-.6.04-1.1,0-1.59-.54-2.58-2.86-5.17-5.72-7.5-8.79-.11-.15-.23-.28-.41-.36-.89-.36-1.78-.72-2.75-1.11.06.3.22.46.35.63,1.58,2.2,3.3,4.29,5.09,6.32,1.01,1.15,2.04,2.28,3.06,3.42.09.1.26.18.18.33-.07.15-.24.08-.38.1-.59.08-1.01-.11-1.43-.58-3.07-3.42-6.1-6.86-8.61-10.72-.1-.16-.22-.29-.4-.36-.81-.32-1.62-.65-2.46-.99-.04.23.11.36.19.51,1.84,3.12,4.09,5.94,6.46,8.67.89,1.03,1.8,2.04,2.7,3.06.08.09.22.17.17.3-.05.14-.21.1-.33.11-.59.06-1.04-.08-1.48-.57-3.07-3.48-6.08-6.99-8.46-11-.05-.09-.13-.18-.16-.28-.5-1.6-1.9-2-3.33-2.45.41,1.03.92,1.96,1.45,2.88,1.88,3.26,4.21,6.19,6.66,9.03.58.67,1.17,1.33,1.75,2,.07.08.18.16.14.27-.05.14-.2.11-.32.12-.53.04-.98-.02-1.39-.48-2.7-3.13-5.35-6.29-7.48-9.85-.77-1.29-1.45-2.62-2.05-4-1.31-3.01-2.03-6.17-2.52-9.4-.25-1.59-.27-3.19-.27-4.8,0-5.84,0-11.68.01-17.52,0-.21-.16-.59.21-.58.36,0,.2.39.2.59.04,3.38.03,6.76.11,10.13.08,3.27.19,6.53.54,9.79.39,3.61,1.04,7.16,2.39,10.56.16.4.37.66.79.8.6.2,1.19.46,1.92.75-.34-.77-.63-1.42-.92-2.07-.07-.15-.24-.18-.38-.24-.44-.18-.87-.38-1.32-.52-.44-.14-.43-.36-.28-.72.14-.35.28-.51.67-.31.21.11.43.23.69.23.1-.13,0-.24-.04-.35-.99-2.97-1.52-6.04-1.83-9.15-.25-2.46-.38-4.93-.47-7.4-.14-3.88-.16-7.76-.17-11.64,0-.4.13-.54.53-.54.41,0,.55.13.56.56.01,3.04,0,6.08.09,9.12.13,4.58.27,9.16,1.09,13.69.16.86.36,1.7.53,2.56.04.2.1.39.31.47.61.24,1.22.49,1.96.78-.22-.72-.36-1.36-.61-1.94-.12-.28-.55-.3-.84-.42-.58-.24-.66-.54-.28-1.06.11-.15.22-.13.36-.09.14.04.26.16.47.11-.14-.84-.3-1.68-.43-2.52-.3-1.96-.49-3.94-.62-5.92-.17-2.64-.23-5.28-.29-7.92-.06-2.29-.03-4.58-.08-6.88,0-.44.17-.54.57-.55.41,0,.51.16.52.55.02,2.77.01,5.53.09,8.3.11,3.95.26,7.91.81,11.83.05.34.18.55.52.66.48.16.94.36,1.51.57-.11-.63-.19-1.2-.31-1.75-.05-.22-.28-.26-.47-.33-.11-.05-.23-.09-.34-.13-.55-.21-.64-.67-.23-1.1.16-.17.32-.05.46.01.32.14.39,0,.36-.28-.26-2.06-.4-4.13-.5-6.21-.08-1.57-.08-3.15-.14-4.72-.08-2.26-.08-4.52-.08-6.78,0-.57.3-.76.85-.59.25.08.21.27.21.44.03,2.41.04,4.83.1,7.24.07,2.61.17,5.22.36,7.83.03.4.15.69.59.8.32.08.63.23.94.35.25.1.35,0,.32-.24-.04-.38-.08-.76-.12-1.14-.03-.26-.16-.41-.41-.49-.32-.11-.63-.24-.94-.36-.41-.15-.19-.41-.11-.63.09-.23.13-.55.52-.38.01,0,.03,0,.04.01.82.27.85.27.7-.62-.06-.37.12-.82-.33-1.08-.07-.04-.04-.14-.01-.21.37-.74.19-1.54.18-2.3-.01-.56-.05-1.13-.06-1.69-.03-2.32-.07-4.65-.1-6.97,0-.53.46-.79.92-.54.2.11.14.29.15.45.03,2.08.07,4.16.09,6.23.02,1.5.01,1.49,1.43,1.95.27.09.37.03.35-.25-.03-.4-.06-.79-.08-1.19-.01-.34-.29-.34-.5-.45-.15-.08-.42-.1-.31-.36.11-.26.09-.71.45-.71.39,0,.35-.19.34-.41-.09-1.56-.07-3.12-.08-4.67,0-.6.07-.66.65-.64.31.01.42.13.43.45,0,.78.05,1.56.05,2.34,0,.32.11.51.43.61.39.11.78.26,1.17.38.12-.41.02-.84.05-1.26.03-.36-.1-.59-.47-.66-.13-.03-.26-.09-.39-.14-.63-.23-.7-.51-.31-1.05.18-.24.36-.08.53-.03.52.18.53.19.62-.35.07-.37.35-.27.58-.28.23,0,.52-.02.48.32-.09.8.34,1.13,1.04,1.25.12.02.23.08.35.12.2.07.32.04.32-.21-.01-.4-.01-.8,0-1.19,0-.28-.18-.36-.39-.43-.8-.27-1.59-.55-2.39-.82-.27-.09-.46-.19-.29-.51.15-.27.11-.73.69-.52,2.4.87,4.83,1.65,7.32,2.26.26.06.47.18.69-.17.22-.34.94-.08,1.02.33.02.11.04.23.16.25.45.1.89.22,1.35.25.27.02.2-.27.18-.43-.05-.4.1-.54.5-.53.39,0,.59.09.58.54-.02.67,0,.67.66.74.96.1.98.1,1.01-.88.01-.39.25-.4.52-.39.28,0,.54-.03.56.4.06,1.13.07,1.12,1.22,1.14.39,0,.64-.05.5-.52-.03-.11-.02-.24-.02-.37-.02-.61.06-.67.67-.65.31.01.42.14.45.45.03.34-.16.8.13.99.23.15.65.02.98.01q.6-.02.59-.63c0-.08,0-.15,0-.23-.01-.59.01-.6.61-.59.33,0,.48.14.46.47,0,.11.01.21,0,.32-.03.39.13.54.52.45.13-.03.27-.05.41-.06.73-.09.74-.09.77-.79.01-.25.1-.39.35-.37.28.02.7-.16.74.3.04.51.27.53.66.41.25-.08.51-.12.76-.18.1-.02.24-.02.28-.13.19-.67.68-.4,1.07-.32.19.04.35.04.53-.01,1.07-.31,2.15-.6,3.21-.95.69-.23,1.18.18,1.72.41.23.1-.05.2-.14.23-.64.21-1.27.44-1.92.62-.4.11-.57.28-.46.71.06.23.05.49.06.73.01.36.15.48.52.36,1.42-.49,2.84-.95,4.25-1.46.65-.23,1.13.16,1.63.4.21.1-.09.21-.19.25-.82.3-1.64.6-2.46.88-1.04.35-2.09.7-3.14,1.03-.34.11-.5.25-.4.62.06.23.07.48.11.72.09.54.09.54.64.37,2.5-.81,4.99-1.68,7.43-2.65.78-.31,1.29.09,1.93.33-.16.23-.37.26-.55.33-2.9,1.11-5.81,2.2-8.77,3.12-.33.1-.43.22-.37.58.22,1.3.21,1.31,1.47.89,3.45-1.16,6.85-2.46,10.24-3.78.35-.14,1.4.07,1.63.33.15.17-.02.2-.12.24-.35.15-.71.28-1.07.42-3.73,1.46-7.47,2.91-11.29,4.12-.28.09-.35.21-.29.49.29,1.34.29,1.35,1.6.89,4.4-1.52,8.73-3.2,13.04-4.96.71-.29,1.21,0,1.77.24.28.13.03.24-.09.29-.49.21-.99.4-1.49.6-4.6,1.81-9.18,3.65-13.88,5.19-.32.11-.44.27-.42.59.02.29.02.58,0,.87-.02.36.1.46.46.33,1.25-.45,2.52-.87,3.77-1.32,3.58-1.3,7.11-2.72,10.66-4.11.15-.06.32-.22.46-.08.11.11-.04.28-.08.42-.14.58-.51.89-1.08,1.11-5.13,2-10.24,4.06-15.5,5.69-.26.08-.34.18-.23.46.52,1.28.52,1.28,1.83.84,4.44-1.48,8.79-3.21,13.15-4.92.09-.03.17-.08.26-.1.08-.02.19-.09.25,0,.03.05.01.15-.01.22-.2.62-.48,1.09-1.19,1.36-4.22,1.61-8.41,3.28-12.7,4.68-.39.13-.46.29-.24.61.15.22.23.47.2.74-.05.44.16.43.49.32,1.3-.46,2.61-.89,3.89-1.38,2.58-.97,5.14-1.97,7.71-2.95.13-.05.3-.2.42-.07.12.12-.05.28-.08.42-.14.63-.55.93-1.15,1.16-4.2,1.61-8.38,3.25-12.69,4.57-.4.12-.39.27-.19.56.93,1.33.48,1.16,1.9.7,3.46-1.13,6.85-2.45,10.25-3.77.17-.07.38-.26.54-.1.13.13-.08.33-.11.51-.12.55-.49.81-1,1-3.2,1.21-6.4,2.45-9.66,3.51-.29.1-.48.17-.35.56.08.25.02.55.03.82,0,.55,0,.55.54.36,1.76-.63,3.52-1.25,5.27-1.89,1.18-.43,2.34-.89,3.52-1.34.12-.05.27-.16.38-.04.09.1-.04.22-.06.34-.15.65-.55,1-1.19,1.23-3.07,1.14-6.13,2.29-9.25,3.28-.37.12-.43.21-.17.52.88,1.09.87,1.08,2.19.63,2.24-.77,4.46-1.6,6.68-2.44.12-.05.27-.17.38-.06.12.12-.03.25-.06.38-.14.65-.54.97-1.17,1.19-2.16.77-4.31,1.59-6.48,2.31-.27.09-.58.12-.59.52,0,.16-.15.14-.23.04-.2-.26-.42-.16-.66-.09-.33.11-.67.21-1.01.31-.23.07-.26.17-.1.35.28.32.57.64.83.98.2.25.41.12.62.06,2.36-.76,4.69-1.61,7.01-2.47.14-.05.31-.2.42-.09.14.14-.04.3-.08.46-.13.6-.52.89-1.1,1.09-1.81.63-3.59,1.31-5.42,1.89-.26.08-.38.15-.31.5.09.44.02.91.02,1.37-.49-.23-.73-.71-1.09-1.07-.14-.14-.24-.3-.49-.21-.4.14-.81.26-1.22.37-.24.06-.27.16-.1.34.31.34.61.68.91,1.02.12.14.25.14.41.09.54-.17,1.08-.3,1.6-.54Zm-31.27.1s-.05.08-.08.11c.19.27.4.53.56.82.57,1.05,1.42,1.72,2.61,1.93.42.08.8.32,1.3.34-.58-.76-1.11-1.47-1.65-2.17-.04-.06-.11-.12-.17-.14-.86-.3-1.72-.6-2.58-.9Zm9,4.58s.05-.09.08-.13c-.57-.69-1.14-1.38-1.72-2.06-.03-.03-.07-.06-.11-.07-.86-.25-1.72-.5-2.59-.75-.04.17.03.23.09.3.47.58.93,1.17,1.4,1.75.08.1.19.23.3.27.84.25,1.7.47,2.55.7Zm-3.03-3.77l.08-.11c-.48-.68-.97-1.36-1.46-2.04-.04-.06-.11-.11-.18-.13-.82-.27-1.64-.54-2.6-.85.52.86.99,1.58,1.53,2.25.04.04.1.08.15.1.83.26,1.65.52,2.48.78Zm-6.51.8s.05-.06.08-.09c-.46-.7-.92-1.4-1.39-2.09-.04-.06-.11-.12-.17-.14-.83-.32-1.67-.64-2.51-.96.36.77.78,1.46,1.21,2.14.05.08.15.16.25.19.84.32,1.68.63,2.52.95Zm6.96-2.49c.41.8.93,1.47,1.48,2.12.07.09.2.15.31.17.67.16,1.33.32,2,.46.09.02.23.08.28-.05.04-.09-.05-.16-.11-.23-.42-.54-.85-1.08-1.27-1.61-.09-.11-.18-.21-.32-.25-.79-.2-1.58-.41-2.37-.61Zm2.71,3.66c.4.47.74.82,1.01,1.21.53.79,1.23,1.21,2.19,1.22.39,0,.78.13,1.24.12-.58-.66-1.11-1.27-1.64-1.88-.09-.11-.19-.19-.34-.22-.78-.14-1.55-.29-2.47-.46Zm-7.73-3.45s.05-.07.08-.11c-.37-.59-.73-1.19-1.1-1.78-.07-.12-.13-.28-.24-.32-.81-.32-1.63-.62-2.45-.92-.02.03-.05.07-.07.1.37.65.74,1.29,1.12,1.94.05.09.14.18.23.21.81.3,1.62.59,2.44.88Zm6.41-1.01c-.07-.3-.27-.45-.36-.65-.55-1.24-1.52-1.87-2.83-2.06-.22-.03-.43-.19-.73-.12.42.67.81,1.29,1.2,1.9.06.09.13.19.22.22.8.28,1.61.51,2.5.71Zm4.34.92c-.53-.72-.99-1.33-1.45-1.94-.05-.07-.13-.15-.21-.17-.77-.18-1.54-.34-2.44-.54.52.81.98,1.49,1.52,2.13.03.03.08.05.12.06.76.2,1.54.35,2.44.47Zm-17.27.63l.07-.09c-.27-.49-.57-.97-.8-1.48-.22-.48-.55-.76-1.05-.92-.58-.18-1.14-.44-1.8-.69.31.76.62,1.39.95,2.01.05.09.13.19.22.22.8.32,1.61.64,2.41.95Zm19.82,2.68s.04-.08.06-.12c-.5-.61-1.01-1.22-1.52-1.82-.05-.06-.15-.11-.24-.12-.75-.12-1.5-.23-2.39-.36.62.74,1.17,1.39,1.72,2.04.04.05.13.09.2.1.72.1,1.44.2,2.17.29Zm-14.75-8.5s-.06.06-.09.09c.33.63.67,1.26,1.01,1.89.04.08.12.16.19.18.78.28,1.57.55,2.36.82.03-.03.05-.07.08-.1-.39-.67-.77-1.34-1.17-2-.03-.06-.12-.1-.19-.13-.73-.26-1.46-.51-2.2-.76Zm6-1c.38.77.74,1.4,1.14,2,.05.08.16.16.25.19.75.2,1.5.38,2.36.6-.46-.74-.85-1.39-1.25-2.03-.04-.07-.14-.13-.22-.15-.72-.2-1.44-.39-2.27-.61Zm3.95,1c.43.75.86,1.39,1.32,2.01.04.06.13.1.2.11.63.1,1.26.2,1.9.3.07.01.18,0,.21-.04.08-.08,0-.17-.06-.24-.35-.52-.71-1.03-1.06-1.55-.07-.1-.16-.19-.29-.21-.7-.12-1.4-.24-2.21-.38Zm-12.71,3.74c-.39-.77-.72-1.41-1.05-2.06-.03-.06-.09-.14-.15-.17-.74-.3-1.48-.58-2.23-.87-.03.03-.05.06-.08.1.28.62.56,1.24.85,1.86.05.11.16.18.28.23.75.29,1.5.58,2.38.92Zm8.26-3.07s.06-.06.08-.08c-.34-.64-.67-1.29-1.01-1.93-.03-.05-.08-.1-.14-.12-.73-.25-1.46-.49-2.28-.76.29.74.59,1.36.9,1.96.06.12.15.19.27.23.72.23,1.45.46,2.17.69Zm9.75,4.89c.17,0,.29,0,.41,0,.12,0,.27.05.33-.09.05-.11-.07-.19-.14-.27-.33-.42-.67-.83-.99-1.26-.17-.23-.39-.33-.66-.35-.52-.06-1.03-.12-1.55-.17-.1-.01-.23-.07-.29.05-.06.11.06.19.12.27.37.49.74.97,1.12,1.45.12.15.25.25.45.27.41.02.82.07,1.19.11Zm-1.74,3.91c.61.69,1.11,1.26,1.61,1.83.12.13.26.2.44.2.53,0,1.07.02,1.6.02.09,0,.21,0,.25-.06.08-.11-.05-.19-.11-.27-.4-.46-.81-.91-1.23-1.36-.07-.08-.16-.17-.26-.18-.73-.07-1.46-.12-2.32-.19Zm-5.42-12.86c.36.71.67,1.32.99,1.92.04.07.13.15.21.17.64.15,1.28.29,1.93.41.18.03.28-.04.17-.23-.3-.55-.61-1.1-.92-1.64-.03-.06-.11-.12-.18-.14-.69-.16-1.39-.31-2.2-.49Zm-11.77,2.03c-.23.01-.14.17-.1.26.21.53.43,1.05.64,1.57.05.12.13.21.25.25.66.25,1.32.49,1.98.73.07.03.17.06.21-.02.03-.05,0-.15-.03-.21-.11-.24-.27-.46-.33-.7-.23-.88-.81-1.34-1.67-1.54-.32-.07-.63-.23-.95-.35Zm18.5,7.95c.86,1.24,1.66,2.4,3.38,1.98.03,0,.06,0,.09,0,.09,0,.2.03.25-.06.07-.12-.06-.19-.12-.27-.37-.43-.74-.86-1.1-1.28-.12-.14-.25-.26-.46-.26-.65,0-1.31.01-2.04-.11Zm-3.03-9.2c.39.66.74,1.23,1.08,1.8.09.14.22.21.37.23.56.08,1.12.15,1.68.17.26,0,.29-.09.16-.3-.29-.46-.58-.93-.87-1.4-.09-.16-.23-.24-.4-.27-.63-.08-1.27-.15-2.02-.24Zm-4.08.94c-.34-.72-.63-1.34-.92-1.95-.02-.05-.07-.11-.12-.13-.7-.22-1.4-.43-2.23-.69.31.73.56,1.32.81,1.91.07.16.21.22.36.26.66.19,1.32.38,2.11.6Zm9.71,4.27c-.45-.62-.86-1.18-1.28-1.74-.06-.08-.14-.11-.24-.12-.58-.03-1.16-.07-1.74-.1-.27-.02-.3.09-.15.29.36.49.72.99,1.07,1.48.07.1.16.19.3.19.65,0,1.3,0,2.03,0Zm-15.76-3.18c-.3-.71-.55-1.29-.79-1.88-.06-.13-.14-.23-.28-.28-.65-.24-1.31-.47-2.05-.74.2.73.43,1.34.71,1.95.03.07.12.14.2.17.7.25,1.4.5,2.21.79Zm-8.5,2.76c-.3-.74-.54-1.34-.78-1.95-.05-.12-.14-.2-.26-.25-.65-.26-1.3-.52-2.01-.8.13.69.38,1.26.59,1.84.03.08.09.18.16.21.72.31,1.45.6,2.3.94Zm17.13-8.03c.24.68.51,1.27.82,1.85.07.13.2.18.34.2.53.08,1.05.18,1.58.26.26.04.39-.02.23-.31-.23-.43-.45-.87-.65-1.31-.11-.24-.27-.35-.52-.38-.57-.09-1.14-.19-1.8-.3Zm5.82,9.62c.43.53.8.94,1.11,1.39.29.43.66.54,1.14.48.35-.04.7-.05,1.05-.08.09,0,.2.03.25-.07.05-.1-.05-.17-.1-.23-.35-.43-.7-.85-1.04-1.28-.09-.11-.19-.2-.34-.2-.64,0-1.28,0-2.06,0Zm2.72-4.08c-.42-.63-.78-1.16-1.13-1.69-.1-.14-.24-.18-.4-.18-.49,0-.98,0-1.47,0-.25,0-.36.06-.19.31.29.45.58.9.87,1.34.09.13.21.22.38.22.61,0,1.22,0,1.94,0Zm-2.31,12.97s-.03.08-.05.12c.47.52.94,1.04,1.42,1.55.05.05.13.11.19.11.68.04,1.35.06,2.09-.1-.5-.54-.95-1.02-1.39-1.51-.1-.11-.21-.18-.36-.18-.64,0-1.27,0-1.91,0Zm-.35-15.91c.11,0,.18,0,.26,0,.49,0,.49,0,.26-.43-.21-.37-.42-.75-.61-1.13-.11-.21-.25-.33-.49-.34-.5-.03-1-.09-1.5-.14-.24-.02-.32.05-.2.28.25.47.49.95.73,1.42.08.17.21.25.4.26.4.02.79.06,1.16.09Zm-9.39-3.44c.25.67.47,1.25.69,1.84.05.14.16.21.31.24.55.13,1.09.28,1.64.41.28.07.33-.05.23-.29-.2-.48-.4-.95-.6-1.44-.07-.18-.21-.25-.38-.29-.59-.15-1.18-.3-1.89-.47Zm-2.87,3.9c-.27-.71-.49-1.29-.71-1.87-.05-.14-.16-.22-.3-.27-.55-.19-1.1-.38-1.65-.56-.18-.06-.31-.05-.22.21.17.49.33.98.49,1.48.05.14.12.25.26.3.66.22,1.33.45,2.12.71Zm-11.1.09c-.24.03-.18.18-.14.3.14.45.28.9.42,1.35.05.17.15.29.32.36.57.22,1.14.44,1.71.66.08.03.17.09.25,0,.07-.08.01-.17-.02-.26-.1-.29-.25-.56-.31-.86-.14-.64-.5-.99-1.13-1.15-.38-.09-.74-.28-1.1-.42Zm28.31,13.97c-.49-.54-.92-1.02-1.36-1.51-.07-.08-.17-.13-.29-.13-.53,0-1.07,0-1.6.04-.3.01-.33.16-.13.37.39.43.78.86,1.17,1.29.1.11.21.2.36.17.58-.1,1.19-.04,1.85-.23Zm-2.01-10.54c-.52.03-.91.06-1.31.08-.19.01-.26.09-.14.26.63.84,1.1,1.96,2.51,1.46.1-.03.21,0,.32-.02.28-.02.42-.11.18-.39-.24-.29-.49-.59-.7-.91-.24-.38-.53-.58-.87-.49Zm-4.15-7.02c.27.03.38-.03.24-.32-.2-.43-.38-.86-.55-1.3-.08-.2-.2-.32-.43-.34-.47-.04-.94-.09-1.4-.16-.28-.04-.33.05-.24.29.18.45.36.91.53,1.36.07.17.16.28.36.29.5.05,1,.11,1.49.17Zm-17.08,4.35c-.23-.7-.42-1.28-.61-1.85-.04-.13-.12-.21-.24-.25-.54-.2-1.08-.41-1.63-.62-.18-.07-.32-.08-.24.19.14.5.28,1,.42,1.5.04.13.12.21.24.26.65.25,1.3.5,2.05.78Zm5.61-5.51c.16.52.32,1.05.49,1.56.05.14.18.2.31.24.52.16,1.05.32,1.57.49.24.08.33.02.24-.23-.17-.49-.33-.98-.5-1.47-.04-.12-.12-.22-.24-.26-.55-.18-1.1-.35-1.66-.52-.16-.05-.24,0-.22.18Zm15.07,14.17c.51.58.97,1.11,1.43,1.63.07.09.17.11.29.1.48-.06.97-.1,1.45-.16.26-.03.37-.13.14-.37-.36-.39-.71-.8-1.06-1.2-.08-.1-.17-.16-.31-.15-.62.05-1.23.1-1.94.16Zm-9.37-15.77c.15.63.33,1.2.54,1.75.05.12.13.22.26.25.52.11,1.05.22,1.57.31.26.04.32-.09.23-.33-.17-.44-.32-.89-.48-1.34-.05-.14-.15-.24-.29-.27-.59-.12-1.19-.24-1.83-.37Zm9.15,3.92c-.36,0-.62,0-.88,0-.22,0-.28.07-.17.27.13.22.28.44.38.68.29.73.74,1.01,1.58.87,1.01-.17.98-.07.49-1.01-.34-.65-.74-1.02-1.4-.81Zm-1.42-2.95c-.14,0-.18,0-.21,0-.95,0-.91-.02-.59.87.27.76.66,1.19,1.52,1.01.18-.04.36,0,.55-.01.36-.01.46-.16.25-.48-.11-.17-.21-.35-.26-.53-.2-.71-.63-1.05-1.27-.86Zm-19.31,1.28c.17.66.31,1.2.44,1.75.04.15.13.25.26.3.56.21,1.11.41,1.67.61.17.06.28.05.22-.17-.15-.51-.3-1.02-.45-1.53-.04-.13-.12-.21-.24-.26-.6-.22-1.2-.44-1.9-.7Zm22.72,6.35c.5-.06,1-.11,1.49-.17.18-.02.29-.09.14-.29-.3-.42-.6-.84-.89-1.27-.1-.14-.21-.19-.39-.17-.48.06-.97.11-1.45.14-.24.02-.32.07-.16.29.31.43.61.87.91,1.31.08.12.18.2.34.17Zm-11.81-6.95c-.19-.65-.36-1.21-.52-1.76-.05-.17-.17-.24-.33-.28-.47-.13-.95-.25-1.41-.39-.27-.08-.34.01-.27.27.12.44.23.89.35,1.33.05.18.15.3.33.34.59.16,1.18.31,1.85.49Zm12.91,10.88c-.43.05-.92.11-1.4.16-.26.03-.28.13-.12.31.34.39.67.79,1,1.19.11.14.25.23.43.21.48-.07.96-.13,1.45-.21.16-.03.27-.11.13-.28-.36-.43-.72-.86-1.09-1.29-.09-.1-.22-.09-.39-.09Zm.43,10.69c.45-.07.91-.14,1.36-.21.24-.04.27-.15.09-.33-.28-.28-.55-.57-.81-.88-.27-.33-.56-.52-1.02-.39-.35.1-.73.08-1.09.12-.09,0-.2-.02-.24.09-.03.1.06.17.12.23.37.4.75.8,1.12,1.21.13.14.28.18.46.17Zm-21.63-22.98c.04.65.21,1.2.35,1.75.03.11.1.19.21.23.55.19,1.09.39,1.64.57.18.06.27,0,.22-.2-.13-.5-.27-1-.41-1.5-.03-.11-.1-.19-.21-.23-.58-.21-1.17-.41-1.8-.64Zm11.36-2.51c.15.51.29,1.03.45,1.54.03.11.12.17.24.19.48.06.97.13,1.45.19.25.03.34-.07.26-.32-.14-.42-.26-.85-.38-1.27-.05-.16-.13-.27-.31-.29-.5-.07-1-.15-1.49-.23-.17-.03-.23.03-.21.2Zm4.68,2.11c.21,0,.43,0,.64,0,.31.01.38-.12.27-.39-.12-.3-.25-.59-.32-.9-.11-.45-.35-.65-.81-.6-.12.01-.24,0-.37,0-.94,0-1.07-.23-.67.94.38,1.12.15.91,1.27.96Zm4.72,18.69c.51.56.96,1.05,1.42,1.54.04.05.14.07.21.06.58-.08,1.17-.15,1.78-.35-.45-.5-.86-.94-1.27-1.39-.07-.08-.16-.15-.28-.13-.58.09-1.17.17-1.86.28Zm-29.16-15.54c.13.64.24,1.2.36,1.77.03.14.13.2.25.25.53.21,1.05.41,1.58.62.19.07.31.08.24-.18-.13-.49-.25-.97-.37-1.46-.04-.15-.13-.24-.26-.29-.57-.22-1.13-.44-1.79-.69Zm27.12-3.15c.51-.05.88-.09,1.24-.11.23-.01.25-.11.17-.29-.17-.42-.34-.85-.5-1.28-.06-.14-.15-.22-.31-.22-.44,0-.88,0-1.33.03-.27.01-.37.16-.26.43.12.28.23.57.31.86.12.43.34.68.68.58Zm3.22,3.72c-.5.06-1,.11-1.5.17-.24.03-.17.17-.1.29.26.43.53.86.79,1.28.08.13.18.2.34.17.48-.08.96-.17,1.44-.24.21-.03.27-.1.14-.29-.25-.4-.5-.8-.75-1.2-.09-.14-.2-.22-.37-.19Zm-13.72-6.49c.14.55.12,1.16.43,1.62.21.31.73.23,1.11.34.18.05.36.08.54.12.23.05.32-.02.25-.26-.13-.46-.24-.91-.36-1.37-.04-.14-.11-.25-.26-.29-.49-.11-.98-.22-1.48-.33-.15-.03-.25-.02-.23.17Zm11.76,5.62c.49-.05.85-.09,1.22-.13.29-.03.37-.15.22-.43-.2-.36-.38-.73-.56-1.1-.09-.19-.24-.26-.44-.25-.44.03-.88.08-1.32.09-.31,0-.33.13-.2.37.17.34.34.68.5,1.03.14.33.36.48.6.42Zm3.92,8.29c-.27-.35-.52-.61-.7-.92-.32-.53-.72-.79-1.36-.57-.24.08-.51.09-.77.1-.31.01-.4.1-.18.37.29.36.57.71.84,1.08.17.23.38.29.64.24.48-.09.96-.18,1.53-.29Zm-21.39-12.83c.13.63.24,1.18.35,1.72.03.14.1.22.23.26.54.17,1.07.34,1.61.51.1.03.24.05.2-.13-.12-.53-.25-1.06-.39-1.59-.02-.07-.11-.16-.18-.19-.57-.19-1.15-.37-1.8-.58Zm-8.26,3.27c.08.41.17.89.27,1.37.02.11.09.19.2.23.52.2,1.05.41,1.58.61.17.06.28.01.24-.19-.11-.51-.23-1.01-.35-1.51-.03-.12-.12-.17-.22-.21-.48-.19-.97-.37-1.45-.56-.19-.08-.3-.03-.26.26Zm23.47-6.4q-.98,0-.74.95s.01.06.02.09c.26.94.13.83,1.09.83,1.31,0,1.06-.04.78-1.01-.25-.86-.25-.86-1.15-.86Zm5.6,22c.46-.1.92-.2,1.39-.29.27-.05.31-.15.12-.35-.33-.36-.65-.73-.97-1.1-.11-.13-.23-.17-.4-.14-.46.09-.93.17-1.4.24-.24.04-.25.13-.11.29.36.41.73.83,1.09,1.24.08.09.17.13.29.11Zm-8.98-22.1c-.17.06-.55-.17-.54.23.02.51.11,1.04.36,1.49.17.32.59.1.89.18.04.01.09.02.13.02q.91.12.69-.76-.29-1.14-1.53-1.17Zm9.33,11.31c-.5.09-.99.17-1.49.25-.18.03-.2.12-.11.25.33.47.58,1.06,1.06,1.36.32.2.82-.1,1.23-.17.11-.02.21-.04.31-.06.24-.04.31-.14.14-.36-.27-.35-.52-.71-.78-1.07-.09-.13-.19-.24-.37-.2Zm1.95,19.14c-.46-.48-.89-.93-1.32-1.37-.1-.1-.22-.09-.34-.07-.45.08-.9.18-1.35.25-.27.04-.27.14-.11.31.35.38.71.75,1.06,1.13.1.1.21.19.36.15.55-.12,1.1-.19,1.69-.4Zm-28.82-26.3c.1.62.19,1.13.27,1.63.02.12.04.25.17.3.6.24,1.21.46,1.89.72-.13-.64-.24-1.17-.35-1.7-.03-.15-.1-.25-.24-.3-.55-.21-1.11-.41-1.74-.65Zm25.46-1.49c-.45.06-.91.12-1.36.18-.26.03-.19.19-.13.34.15.4.32.79.48,1.19.07.18.19.28.39.25.45-.07.9-.15,1.35-.23.19-.03.26-.12.17-.32-.18-.39-.34-.78-.5-1.18-.07-.19-.21-.25-.39-.23Zm-17.13-1.31c.04.21.1.42.1.63,0,.75.33,1.19,1.11,1.27.24.02.47.12.71.19.24.08.32.05.28-.24-.24-1.56-.23-1.56-1.75-2-.06-.02-.12-.03-.18-.05-.19-.08-.3-.05-.27.19Zm5.6-1.57c.09.46.19.93.27,1.39.04.23.24.27.41.3.39.07.79.12,1.18.19.32.06.37-.08.3-.35-.09-.39-.19-.77-.25-1.16-.04-.26-.18-.37-.42-.41-.41-.07-.81-.13-1.22-.19-.18-.03-.31,0-.28.24Zm12.24,7.57c.46-.09.93-.18,1.39-.28.2-.04.25-.13.14-.32-.21-.37-.41-.75-.61-1.13-.1-.19-.26-.25-.46-.22-.41.07-.81.14-1.22.21-.24.04-.37.12-.22.39.21.37.4.75.6,1.13.08.15.18.25.36.21Zm1.43,11.56c.37-.09.87-.2,1.35-.33.23-.06.11-.2.02-.31-.3-.35-.6-.7-.89-1.05-.12-.14-.26-.21-.44-.17-.47.09-.93.18-1.39.27-.15.03-.25.08-.13.23.35.42.71.84,1.07,1.26.07.09.18.11.41.1Zm-7.03-19.9c.17,0,.34-.01.5,0,.41.04.51-.14.39-.52-.09-.29-.16-.59-.18-.89-.03-.38-.21-.51-.56-.46-.11.01-.21,0-.32,0-1.04,0-1.05,0-.85,1.03.18.93-.04.83,1.02.84Zm7.43,26.86c-.42.08-.93.17-1.44.28-.16.03-.15.13-.06.23.42.44.77,1.02,1.29,1.27.44.21,1.02-.16,1.53-.26.26-.06.25-.16.09-.33-.31-.33-.62-.67-.93-1-.11-.11-.22-.21-.48-.18Zm-23.18-21.41c-.04-1.38-.22-1.62-1.49-2.06-.1-.04-.2-.07-.3-.11-.28-.12-.39-.04-.35.28q.16,1.43,1.5,1.93c.13.05.26.09.39.14.18.07.31.07.26-.17Zm18.93-2.67c.35-.05.56-.09.77-.11q.86-.08.6-.88c-.33-1-.33-1.03-1.37-.89-.87.12-.83-.06-.59.84.06.22.13.44.19.66.07.28.24.42.4.38Zm4.47,6.27c-.5.1-.98.19-1.45.29-.18.04-.17.15-.09.27.27.42.54.85.82,1.27.08.12.19.13.32.1.44-.11.89-.22,1.33-.31.25-.05.25-.17.13-.35-.24-.35-.47-.71-.7-1.07-.09-.15-.21-.21-.36-.19Zm-17.03-9.16c-.17-.03-.28.07-.25.28.06.45.13.91.2,1.36.02.13.12.2.25.23.46.11.92.23,1.38.33.12.03.28.04.25-.15-.08-.51-.17-1.02-.27-1.53-.03-.13-.15-.19-.27-.22-.42-.1-.83-.2-1.3-.31Zm6.8.03c.6.02.6,0,.49-.57-.01-.06-.03-.12-.04-.18q-.21-1.07-1.27-1.2c-.69-.09-.75-.06-.63.63.24,1.44-.12,1.14,1.45,1.32Zm10.52,16.82c.47-.12.95-.24,1.42-.36.22-.06.16-.18.06-.3-.29-.36-.57-.72-.86-1.08-.12-.15-.27-.19-.45-.15-.42.09-.84.18-1.25.27-.24.05-.32.15-.14.37.29.35.58.71.86,1.07.09.11.19.21.35.18Zm.27,8.82c.49-.12.96-.24,1.43-.37.26-.07.14-.21.03-.33-.32-.35-.64-.7-.96-1.04-.09-.09-.18-.16-.32-.13-.49.11-.98.22-1.47.32-.14.03-.2.11-.09.22.39.43.78.85,1.18,1.27.04.05.14.04.2.06Zm-5.03-27.61c-.4.04-.73.09-1.06.09-.33,0-.39.14-.31.43.07.26.1.54.16.8.14.63.14.63.8.57.18-.02.37,0,.55-.04.7-.15.68.07.5-.74-.05-.24-.13-.47-.16-.71-.04-.34-.22-.45-.46-.4Zm4.75,5.11c-.46.1-.92.2-1.39.3-.23.05-.2.19-.13.35.15.36.32.73.47,1.09.09.23.26.28.48.23.4-.1.8-.2,1.2-.29.2-.05.3-.13.19-.35-.18-.37-.34-.75-.51-1.13-.06-.14-.14-.24-.31-.21Zm-23.16-1.52c.04,1.34.08,1.4,1.31,1.81.13.04.26.08.39.13.29.11.38.01.35-.29q-.15-1.47-1.55-1.92s-.06-.01-.09-.03c-.34-.15-.46-.02-.41.29Zm9.92-1.95c.28.03.32,0,.28-.29-.05-.38-.11-.75-.16-1.13-.04-.31-.19-.47-.5-.49-.14-.01-.27-.04-.41-.07q-.95-.17-.87.79t.97,1.08c.23.04.45.08.68.12Zm14.28,13.93c.48-.13.97-.26,1.45-.4.21-.06.12-.2.05-.32-.74-1.27-.78-1.29-2.2-.94-.09.02-.18.04-.27.06-.23.06-.26.16-.11.35.27.35.52.71.78,1.07.07.1.15.2.3.18Zm-30.4-6.93c-.1-.61-.18-1.11-.26-1.6-.02-.16-.06-.3-.23-.37-.47-.18-.94-.36-1.41-.54-.19-.07-.25,0-.22.19.06.44.11.88.16,1.32.02.15.08.27.22.32.55.22,1.1.43,1.74.68Zm29.05,14.31c1.11,1.56,1.23,1.61,2.69,1.14.04-.01.09-.02.13-.04.24-.07.24-.18.08-.35-.29-.31-.57-.63-.85-.95-.13-.15-.29-.22-.49-.17-.5.12-1.01.24-1.56.37Zm1.54-15.17c-.43.1-.93.21-1.41.34-.23.06-.14.22-.07.37q.63,1.36,2.09.96c.06-.02.12-.03.18-.05.23-.04.27-.15.15-.35-.2-.34-.38-.7-.58-1.04-.07-.12-.12-.26-.36-.22Zm-3.04-3.4c.45-.1.89-.2,1.34-.3.2-.04.24-.17.18-.34-.13-.39-.26-.78-.39-1.17-.06-.17-.15-.24-.34-.2-.42.09-.84.16-1.26.24-.23.04-.31.15-.23.38.13.37.25.75.37,1.13.05.15.11.29.32.26Zm-18.7-2.81q.09,1.32,1.37,1.7c.06.02.12.03.17.06.34.12.47.04.42-.35-.19-1.42-.18-1.42-1.51-1.79q-.49-.14-.45.39Zm22.33,29.73c-.43.11-.9.23-1.37.35-.1.03-.19.1-.12.19.38.47.77.94,1.28,1.29.05.03.15.01.22,0,.41-.11.82-.23,1.23-.35.18-.05.28-.14.11-.32-.34-.35-.68-.7-1.02-1.05-.08-.08-.17-.13-.33-.11Zm-10.39-34.07q-.92-.02-.83.92c0,.06,0,.12.01.18.06.68.14.76.83.78q1.08.03.94-1.03-.11-.83-.95-.84Zm11.32,13.09c-.5.13-1,.26-1.49.41-.24.07-.08.21-.02.32q.74,1.35,2.22.88c.07-.02.15-.04.22-.07.08-.03.16-.08.12-.16-.26-.48-.55-.94-.91-1.36-.02-.03-.09-.02-.14-.03Zm-31.51-5.48c-.16.83.28,1.35,1.21,1.53.15.03.29.1.43.16.29.12.34-.02.32-.28q-.12-1.45-1.5-1.96s-.09-.03-.13-.05c-.32-.15-.47-.1-.36.29.02.06.02.12.04.31Zm24.13-6.23c-.05-.28-.1-.51-.12-.73-.11-1.01-.18-.85-.93-.75-.21.03-.43.03-.64.03-.24,0-.33.1-.29.34.07.39.11.78.17,1.18.03.26.17.38.43.35.36-.04.73-.06,1.09-.1.21-.02.35-.12.29-.31Zm6.66,22.62c.49-.14.97-.28,1.45-.43.11-.03.16-.11.07-.2-.34-.39-.68-.79-1.02-1.17-.09-.1-.23-.09-.35-.06-.44.11-.89.23-1.33.35-.12.03-.23.07-.12.21.35.42.72.83,1.08,1.24.04.05.14.05.21.08Zm-12.48-22.61q-.05-1.4-1.39-1.61c-.1-.02-.21-.03-.32-.04-.13,0-.2.06-.19.19.02.53-.05,1.13.21,1.56.18.31.75.19,1.16.22.05,0,.09,0,.14.02.34.1.45-.05.4-.34Zm8.71.92c-.4.07-.81.13-1.21.2-.22.04-.31.18-.26.4.09.39.18.77.26,1.15.05.22.17.29.4.24.38-.09.77-.16,1.16-.23.23-.04.31-.15.25-.38-.1-.37-.18-.74-.27-1.11-.04-.18-.11-.32-.33-.28Zm-2.01-2.4c.07.44.15.87.22,1.31.02.12.03.26.21.24.51-.08,1.1-.02,1.49-.33.25-.2-.04-.68-.07-1.04-.01-.14-.05-.27-.07-.41-.02-.23-.14-.27-.34-.24-.41.07-.81.13-1.22.19-.17.02-.25.1-.22.28Zm-12.21,3.57c-.04-.38-.07-.74-.12-1.11-.03-.18-.06-.37-.29-.43-.43-.1-.86-.2-1.29-.3-.13-.03-.28-.03-.24.15.1.52-.06,1.12.24,1.57.22.34.75.25,1.14.38.06.02.12.03.18.05.28.07.46.02.39-.31Zm18.99,17.26c.4-.12.84-.26,1.28-.39.28-.08.24-.18.1-.38q-.88-1.19-2.31-.8s-.09.03-.13.03c-.24.05-.31.15-.13.36.28.32.54.66.81.99.09.11.18.21.38.18Zm-16.41-19.87q-.07-1.29-1.34-1.54s-.09-.02-.13-.03c-.3-.08-.44.04-.39.35.02.11.04.21.05.32q.12,1.17,1.31,1.37.53.09.5-.46Zm14.43,30.43c1.18,1.53,1.25,1.55,2.73,1.06.01,0,.03-.01.04-.01.33-.07.27-.2.08-.39-.3-.3-.59-.62-.87-.93-.12-.14-.25-.2-.44-.14-.49.14-.99.27-1.54.42Zm1.29-22.21c.31-.09.72-.22,1.13-.32.29-.07.33-.22.2-.47-.16-.32-.3-.64-.43-.96-.09-.21-.2-.27-.43-.2-.39.12-.79.22-1.2.32-.27.06-.31.19-.19.42.16.33.31.67.46,1,.07.15.16.26.45.22Zm-28.48-4.22c.02.3.04.52.05.73q.05,1.11,1.08,1.47c.2.07.41.14.61.21.2.07.28.04.25-.2-.06-.42-.11-.85-.15-1.27-.02-.19-.1-.32-.28-.38-.5-.18-1-.36-1.56-.55Zm30.36,4.81c-.5.15-1,.29-1.49.44-.17.05-.11.19-.05.3.19.35.39.69.58,1.04.1.19.25.25.46.18.39-.12.79-.24,1.18-.36.23-.07.28-.19.15-.4-.19-.33-.37-.66-.56-1-.06-.11-.11-.23-.27-.21Zm-9.75-12.78c-.33.02-.67.06-1,.06-.28,0-.39.11-.36.39.04.39.07.79.1,1.18.02.26.19.33.42.31.36-.03.73-.06,1.09-.09.19-.01.28-.12.26-.3-.04-.42-.09-.85-.13-1.27-.02-.22-.14-.33-.37-.28Zm6.73,9.53c.42-.13,1.05-.1,1.37-.46.23-.25-.21-.74-.29-1.14-.01-.06-.04-.11-.06-.17-.06-.22-.19-.29-.42-.22-.38.11-.77.21-1.15.3-.22.05-.33.14-.24.38.13.36.25.72.37,1.08.05.16.15.26.41.23Zm-.97-2.72c.49-.16,1.15-.08,1.44-.46.26-.34-.15-.87-.22-1.33-.04-.22-.16-.31-.39-.25-.38.1-.77.18-1.15.28-.18.04-.31.13-.25.35.1.41.21.82.31,1.24.04.15.12.2.27.17Zm-12.57-6.97c-.24-.06-.26.11-.25.32.03.41.07.82.09,1.23.01.21.14.3.32.33.38.05.76.09,1.14.13.28.03.34-.13.31-.37-.04-.35-.06-.7-.08-1.05-.01-.28-.11-.45-.43-.47-.35-.01-.7-.07-1.09-.12Zm3.62,2.11c.16,0,.35,0,.55,0,.18,0,.3-.07.29-.27-.03-.42-.07-.85-.12-1.27,0-.08-.07-.2-.14-.22-.49-.15-1.02-.25-1.47-.06-.31.13-.08.57-.07.88,0,.05,0,.09.01.14.02.89,0,.79.86.8.02,0,.03,0,.09,0Zm-14.72,4.69c.03.28.07.59.1.91.01.16.09.26.23.3.43.14.87.29,1.3.43.18.06.27,0,.26-.19-.03-.45-.07-.91-.12-1.36-.02-.15-.12-.24-.26-.29-.4-.14-.81-.27-1.21-.41-.22-.07-.32,0-.3.24,0,.11,0,.21,0,.36Zm5.33-4.59c.02.2.02.31.03.42q.13,1.07,1.21,1.33.64.15.57-.51c-.13-1.22-.14-1.21-1.32-1.52-.39-.1-.57-.05-.49.29Zm22.23,18.49c.38-.12.84-.26,1.3-.41.22-.07.13-.18.05-.31-.75-1.23-1.04-1.32-2.38-.79-.2.08-.29.16-.15.36.25.34.51.68.77,1.02.08.1.18.16.41.14Zm-23.02-14.65s0-.04,0-.05c-.05-1.49-.09-1.54-1.54-1.89-.22-.05-.33-.05-.34.23-.07,1.37.03,1.52,1.34,1.89.07.02.15.04.22.07.23.07.36.03.32-.24Zm9.84-8.77c-.12,0-.24,0-.37,0-.49,0-.54.06-.49.56.02.2.05.39.06.59.03.72.03.73.73.72,1.1,0,.99.19.97-1-.02-.87-.03-.87-.9-.88Zm8.67,6.87c.33-.08.65-.17.98-.23.4-.07.61-.21.45-.67-.1-.3-.13-.63-.18-.94-.03-.19-.11-.27-.31-.22-.4.1-.8.18-1.21.28-.16.04-.28.1-.24.31.08.4.15.81.22,1.22.03.17.07.31.29.25Zm3.67,28.65c.49-.15.97-.3,1.44-.46.15-.05.1-.17.02-.25-.33-.36-.66-.72-.99-1.08-.09-.1-.21-.11-.33-.08-.42.12-.85.24-1.27.36-.12.03-.28.09-.15.24.36.41.73.81,1.11,1.21.04.04.11.04.17.06Zm-5.93-33.02c-1.4.06-1.43.09-1.32,1.47,0,.11,0,.21.03.32.03.18.15.26.33.24.39-.06.78-.12,1.17-.2.19-.04.28-.16.26-.36-.05-.41-.11-.81-.16-1.22-.02-.19-.11-.27-.3-.24Zm8.13,8.5s-.02-.06-.02-.09c-.26-1.37-.38-1.45-1.71-1.04-.09.03-.17.06-.26.08-.22.05-.31.16-.22.39.14.34.26.69.37,1.04.07.23.2.28.41.21.41-.13.82-.26,1.22-.39.1-.03.21-.06.2-.21Zm-12.56-10.27q.02,1.13,1.04,1.07.81-.05.7-.85s-.01-.06-.02-.09c-.12-.95-.12-.94-1.07-.88-.63.04-.69-.11-.66.74Zm6.2,3.29c.48-.12,1.08-.07,1.43-.4.25-.23,0-.74-.04-1.13-.01-.09-.02-.18-.02-.27-.01-.25-.16-.31-.37-.26-.39.08-.77.17-1.16.26-.16.03-.24.12-.22.29.05.44.11.88.16,1.31.02.14.06.24.23.2Zm-26.27,7.85c-.09-.39-.08-.79-.11-1.18,0-.17-.1-.28-.26-.34-.4-.15-.8-.3-1.2-.45-.15-.06-.29-.07-.3.13-.03.51-.03,1.03.14,1.49.11.3.55.28.84.42.17.08.34.13.51.2.26.11.42.08.38-.26Zm11.81-9.36c0,.41,0,.82,0,1.23,0,.19.06.32.27.36.41.08.81.17,1.21.24.15.03.31,0,.27-.2-.1-.51.14-1.13-.16-1.52-.27-.36-.91-.24-1.37-.37-.23-.06-.32.03-.22.25Zm4.36-1.59q-.03-1.05-.78-1.1c-.93-.06-.93-.06-.92.92.02,1.03-.13.79.89.94.83.12.83.09.81-.76Zm-13.51,8.95q0-1.41-1.31-1.87c-.07-.03-.15-.05-.21-.08-.25-.11-.35-.05-.35.24,0,1.43,0,1.43,1.35,1.91.04.02.09.03.13.05.29.13.44.07.4-.25Zm27.61-.95c.21-.06.44-.14.67-.2q.85-.25.62-1.11c-.05-.19-.11-.38-.15-.57-.03-.13-.1-.24-.25-.19-.49.15-1.11.14-1.44.5-.27.28.11.79.18,1.2.01.07.04.15.07.22.04.14.14.2.3.17Zm-5.65-8.38c0,.07,0,.02,0-.02q-.03-.99-.99-.83-.76.13-.72.98.05.95.98.84.76-.1.73-.97Zm-13.95,2.39q-.02-.96-.96-1.19c-.13-.03-.27-.06-.4-.1-.28-.09-.36.03-.35.29.01.35.02.7.01,1.05-.01.29.1.46.39.51.15.03.29.08.44.12q.89.23.87-.67Zm18.43,1.87c.07.34.15.76.23,1.18.03.17.13.2.31.17,1.42-.22,1.53-.37,1.23-1.74,0-.03,0-.06-.01-.09-.04-.2-.15-.3-.36-.24-.4.11-.79.22-1.19.33-.16.04-.22.15-.21.38Zm-23.76,2.84q-.03-1.24-1.19-1.63s-.09-.02-.13-.04c-.39-.19-.49-.06-.48.35.06,1.57-.15,1.21,1.26,1.71.55.19.55.18.54-.39Zm2.66-2.37q-.02-1.02-.98-1.31c-.87-.26-.81-.25-.79.69.02.75.3,1.06,1.01,1.21.78.16.77.22.75-.59Zm17.68-5.36q.03,1.29,1.07,1.05c.78-.18.8-.18.66-.97-.06-.32.15-.78-.18-.92-.25-.11-.64.11-.97.15-.48.05-.7.27-.58.69Zm-15.11,0c-.02-1.11.1-.87-.87-1.13-.15-.04-.3-.08-.44-.12-.26-.07-.41-.03-.39.29.02.35.03.7,0,1.05-.02.31.12.45.4.5.13.02.27.07.4.1,1.08.3.89.23.9-.69Zm-7.13,3.75q.02.97.76,1.22.96.33.95-.7-.01-.81-.79-1.07s-.09-.03-.13-.05q-.81-.27-.79.59Zm8.2-3.76s0,.15.02.27q.11.92,1.04,1.1c.76.15.78.13.69-.64q-.14-1.09-1.18-1.3c-.55-.11-.57-.09-.57.56Zm-9.16,6.97q-.03-1.49-1.42-1.93s-.03-.01-.04-.02c-.24-.11-.31-.03-.33.22-.08,1.42-.08,1.42,1.24,1.9.06.02.12.04.17.06.28.13.41.05.37-.24Zm26.23-4.85c.03.21.07.42.09.63q.07.75.8.54,1.03-.3.89-1.38-.09-.67-.73-.49c-.22.06-.44.13-.66.18-.28.06-.43.21-.38.52Zm1.51-2.45q-.04-1.31-1.21-1c-.6.16-.65.21-.54.81.07.35-.11.86.17,1.03.29.18.71-.14,1.08-.21.4-.07.61-.26.51-.63Zm-30.49,8.79q-.02-.96-.92-1.29s-.06-.02-.09-.03c-.85-.31-.77-.31-.76.61,0,.77.32,1.1,1.01,1.3.78.22.77.27.75-.58Zm6.39-6.88q0,1.07.94,1.34.81.24.77-.61c-.05-1-.05-1.01-1.02-1.28-.74-.21-.7-.3-.69.55Zm-1.07-.2c-.03-1.03.18-.82-.87-1.18-.83-.28-.84-.28-.83.6.02,1.12-.1.87.84,1.2.93.32.85.41.85-.62Zm-2.74,2.02c-.04-1.05.17-.8-.86-1.19-.83-.31-.85-.3-.83.57.02,1.05-.18.86.86,1.23.84.3.84.3.84-.61Zm5.49-3.6q0-1.48-1.3-1.82s-.03,0-.04-.01c-.27-.11-.35.02-.37.27-.12,1.4-.11,1.41,1.21,1.79.04.01.09.02.13.04.3.12.39-.01.37-.27Z"/>
      <path class="cls-5" d="m151.48,409.03c.02-1.76.67-3.72,2.23-5.31,2.51-2.58,6.45-2.39,8.72.41,1.5,1.85,1.99,3.98,1.79,6.31-.17,2.01-.98,3.69-2.44,5.08-2.15,2.06-5.62,2.08-7.78.03-1.7-1.61-2.52-3.6-2.52-6.52Zm11.58.46c.05-1.65-.43-3.18-1.49-4.52-1.92-2.43-5.06-2.54-7.16-.27-2.31,2.49-2.37,6.95-.01,9.58,1.78,1.99,4.69,2.17,6.6.32,1.43-1.38,2.11-3.08,2.06-5.11Z"/>
      <path class="cls-5" d="m172.97,417.08c-1.87-.03-3.39-.64-4.62-1.92-.55-.58-.92-1.26-.9-2.09.01-.48.21-.75.56-.74.43,0,.56.3.59.67.04.66.33,1.19.8,1.65,1.73,1.67,5.05,1.66,6.7,0,1.13-1.14,1.2-3.52-.88-4.28-.96-.35-1.95-.5-2.94-.69-.69-.13-1.37-.32-2.02-.58-2.77-1.08-2.72-4.17-1.19-5.77,1.88-1.95,6.4-2.12,8.11.91.26.46.44.95.4,1.48-.02.32-.16.61-.55.62-.37.01-.53-.23-.61-.56-.39-1.7-1.5-2.62-3.31-2.7-1.22-.05-2.34.23-3.2,1.18-1.14,1.26-.74,3.12.81,3.8,1.06.47,2.22.57,3.33.81.55.12,1.1.27,1.64.44,2.94.95,2.97,4.39,1.51,6-.92,1.01-2.08,1.52-3.42,1.69-.3.04-.61.05-.81.07Z"/>
      <path class="cls-5" d="m138.09,409.4c-.06,1.23.03,2.43.65,3.56,1.35,2.48,4.29,3.59,6.83,2.55.79-.33,1.44-.86,2.01-1.49.08-.09.16-.19.24-.28.32-.36.69-.46.96-.26.27.2.28.6-.04.98-1.19,1.42-2.65,2.35-4.54,2.57-3.76.44-6.82-2.8-7.17-5.39-.27-2-.38-4.02.47-5.95,2.05-4.64,7.27-4.52,9.65-2.34.66.61,1.15,1.3,1.38,2.17.04.16.06.33.05.5-.02.31-.16.52-.5.55-.33.02-.55-.13-.6-.44-.29-1.96-1.74-2.61-3.41-2.94-3.49-.69-6.08,2.42-5.98,5.22.01.34,0,.67,0,1.01Z"/>
      <path class="cls-5" d="m187.01,409.42c-.12-1.57.17-3.04.95-4.42,2.19-3.86,7.14-3.86,9.57-1.42.56.57.96,1.23,1.14,2.01.04.15.05.3.03.45-.04.31-.21.5-.54.51-.34.02-.54-.16-.57-.47-.16-1.6-1.29-2.3-2.62-2.73-3.27-1.05-6.4,1.07-6.73,4.51-.14,1.48-.24,2.97.31,4.39.97,2.48,3.68,4.42,6.95,3.32.88-.3,1.56-.88,2.19-1.55.17-.18.32-.38.51-.53.22-.18.49-.19.72-.01.22.18.22.43.12.67-.08.18-.2.35-.33.49-2.89,3.32-7.51,3.2-10.26-.25-.96-1.21-1.45-2.57-1.43-4.11,0-.29,0-.58,0-.87Z"/>
      <path class="cls-5" d="m180.79,342.49c-.08.18-.21.18-.32.21-3.55.96-7.15,1.61-10.85,1.55-3.34-.05-6.59-.64-9.8-1.51-1.82-.49-3.61-1.05-5.39-1.67-.26-.09-.55-.12-.39-.55.24-.62.25-.66.74-.49,2.91.99,5.85,1.87,8.87,2.48,2.84.57,5.7.73,8.58.57,2.15-.12,4.29-.48,6.36-1.05.87-.24,1.49.18,2.2.45Z"/>
      <path class="cls-5" d="m176.08,340.71c-.59.18-1.21.23-1.82.31-1.26.17-2.52.27-3.79.28-3.6.04-7.12-.56-10.59-1.5-1.49-.4-2.97-.85-4.43-1.34-.24-.08-.53-.1-.38-.51.23-.6.29-.68.74-.53,2.61.87,5.25,1.62,7.96,2.16,2.67.53,5.36.69,8.07.58.76-.03,1.52-.15,2.28-.23.11-.01.22-.03.32,0,.55.21,1.1.43,1.65.65,0,.04,0,.08-.01.13Z"/>
      <path class="cls-5" d="m137.55,375.29c.38,1.02.76,2.03,1.2,3.02,1.4,3.08,3.3,5.85,5.38,8.5,1.1,1.39,2.24,2.75,3.41,4.08.08.09.25.18.17.34-.06.13-.22.07-.34.09-.65.1-1.09-.16-1.52-.67-2.49-2.95-4.89-5.95-6.8-9.32-.53-.94-1.02-1.92-1.47-2.9-.13-.28-.19-.57-.19-.89.01-.74,0-1.48,0-2.23.05,0,.09,0,.14-.01Z"/>
      <path class="cls-5" d="m181.95,409.44c0-2.22,0-4.43,0-6.65,0-.18-.09-.44.15-.52.29-.1.61-.12.89.03.17.09.11.3.11.46,0,1.28,0,2.57,0,3.85,0,3.13,0,6.27,0,9.4,0,.58-.46.86-1,.61-.24-.12-.16-.34-.16-.53,0-2.22,0-4.43,0-6.65Z"/>
      <path class="cls-5" d="m170.07,338.28c-.68,0-1.37.04-2.05,0-3.42-.23-6.74-.97-10.01-1.96-.54-.16-1.08-.34-1.62-.5-.31-.09-.38-.22-.25-.53.26-.62.25-.63.89-.43,2.83.91,5.69,1.71,8.64,2.05,1.41.16,2.72.52,4,1.09.14.06.28.12.41.18,0,.03,0,.06,0,.09Z"/>
      <path class="cls-5" d="m137.41,382.41c.21.04.24.15.3.24,1.71,2.85,3.76,5.46,5.91,7.99.15.17.46.34.34.58-.1.2-.42.07-.64.09-.34.03-.61-.05-.85-.33-1.59-1.9-3.11-3.85-4.52-5.89-.39-.57-.62-1.14-.54-1.83.03-.27,0-.54,0-.85Z"/>
      <path class="cls-5" d="m137.54,387.62c.7.88,1.41,1.76,2.11,2.65.19.24.39.47.58.71.16.19.11.3-.14.32-.59.04-1.16.05-1.51-.58-.17-.3-.4-.58-.66-.82-.71-.65-.49-1.46-.5-2.24.04-.01.08-.02.11-.04Z"/>
    </g>
    <g class="cls-11">
      <g>
        <path class="cls-7" d="m335.19,296.83c0-7.72.01-15.44-.02-23.16,0-.77.16-1.03.98-1.01,2.14.06,2.14.02,2.14,2.17,0,15.09,0,30.19.02,45.28,0,.8-.25.94-.96.92-2.17-.04-2.17,0-2.17-2.17,0-7.35,0-14.69,0-22.04h0Z"/>
        <path class="cls-7" d="m395.69,296.83c0-7.72.01-15.44-.02-23.16,0-.77.16-1.03.98-1.01,2.14.06,2.14.02,2.14,2.17,0,15.09,0,30.19.02,45.28,0,.8-.25.94-.96.92-2.17-.04-2.17,0-2.17-2.17,0-7.35,0-14.69,0-22.04h0Z"/>
        <path class="cls-10" d="m375.49,306.65c-1.22-.62-2.53-.87-3.89-.87-2.89,0-5.78,0-8.67,0-.78,0-1.54-.11-2.29-.29-.51-.12-.99-.34-1.13-.92-.14-.6.09-1.08.57-1.42,1.19-.84,2.47-1.24,3.95-.96,3.95.74,7.37-.26,9.86-3.48,2.42-3.14,2.61-6.6.85-10.14-.48-.96-.49-.95.59-.96,2.42,0,2.4,0,2.37-2.45,0-.62-.22-.77-.8-.76-2,.03-4.01,0-6.01.01-.46,0-.9-.08-1.34-.23-3.12-1.05-6.08-.71-8.86,1.07-3.26,2.1-4.88,6.21-3.95,9.93.45,1.8,1.35,3.32,2.68,4.59.72.69.73.71-.21,1.12-.53.23-1.02.52-1.46.89-2.4,2-1.84,5.52,1.05,6.65.37.14.74.27,1.29.47-.47.33-.8.54-1.12.77-2.34,1.7-3.36,4.22-2.83,6.6.66,2.97,3.51,4.52,6.42,4.73,2.59.19,5.13-.09,7.58-1.05,2.73-1.07,5.23-2.45,7.01-4.87,2.11-2.87,1.29-6.96-1.67-8.45Zm-15.29-13.45c-.01-3.72,1.94-6.37,5.19-7.03,2.07-.42,3.75.45,5.11,1.95,2.8,3.09,2.3,8.23-1.01,10.75-3.09,2.35-7.48.76-8.88-3.21-.3-.85-.43-1.71-.4-2.46Zm13.29,21.39c-1.58,1.85-3.73,2.67-6.01,3.22-.95.23-1.91.35-2.81.32-1.27.01-2.42-.14-3.49-.7-2.34-1.24-2.85-4.08-1-5.98,1.25-1.28,2.72-2.12,4.62-2.06,2.14.07,4.29-.02,6.43.12,1.14.07,2.29.23,2.83,1.41.6,1.31.36,2.58-.57,3.68Z"/>
      </g>
      <g>
        <path class="cls-5" d="m400.94,340.74c.79.04,1.76.14,2.7.49.24.09.35.16.22.44-.13.3-.22.62-.29.93-.06.3-.2.3-.44.22-1.01-.34-2.05-.51-3.12-.42-.58.05-1.14.19-1.64.52-.89.59-.95,1.65-.13,2.33.43.35.94.57,1.45.77,1,.38,2.03.66,3,1.14,1.42.7,2.24,1.76,2.1,3.43-.12,1.42-1.07,2.57-2.59,3.09-1.56.53-3.13.43-4.71.08-.64-.14-1.26-.34-1.86-.6-.25-.11-.34-.23-.25-.51.13-.38.23-.77.32-1.16.05-.22.17-.25.35-.17.97.42,1.98.72,3.03.88.94.14,1.87.12,2.75-.3,1.31-.62,1.43-2.11.23-2.93-.73-.5-1.59-.73-2.42-1.01-.86-.29-1.72-.57-2.48-1.1-1.23-.85-1.75-2.27-1.29-3.67.31-.96,1.06-1.52,1.94-1.91.93-.41,1.91-.56,3.11-.54Z"/>
        <path class="cls-5" d="m361.48,342.51c0-2.45,0-4.91,0-7.36,0-.33.08-.47.42-.42.19.03.39,0,.58,0,.91,0,.92,0,.92.93,0,1.84,0,3.69,0,5.53,0,2.89,0,5.77,0,8.66,0,.41.04.83.1,1.24.12.8.61,1.27,1.4,1.42.28.05.38.15.36.43-.02.33-.03.66,0,.98.04.41-.15.46-.49.44-1.41-.1-2.78-1.29-3.11-2.68-.17-.73-.19-1.47-.2-2.21-.02-2.32,0-4.64,0-6.96.01,0,.03,0,.04,0Z"/>
        <path class="cls-5" d="m389.81,347.37c0,2.02-.01,4.05,0,6.07,0,.4-.12.53-.51.49-.31-.03-.63-.03-.94,0-.39.04-.48-.14-.47-.49.02-.74,0-1.49,0-2.23,0-2.74,0-5.47,0-8.21,0-.42-.14-.54-.54-.54-1.24,0-1.23-.01-1.23-1.23,0-.33.12-.4.42-.39.95.01,1.91.02,2.86,0,.32,0,.4.11.4.42-.01,2.04,0,4.08,0,6.11h0Z"/>
        <path class="cls-5" d="m390.02,337.24c0,.63-.54,1.17-1.16,1.16-.68,0-1.18-.5-1.18-1.18,0-.64.51-1.16,1.15-1.17.64-.01,1.19.54,1.19,1.19Z"/>
        <path class="cls-5" d="m339.33,352.44c-.64-.32-1.32-.45-2.03-.45-1.5,0-3.01,0-4.51,0-.41,0-.8-.06-1.19-.15-.27-.06-.52-.18-.59-.48-.07-.31.05-.56.3-.74.62-.44,1.29-.64,2.06-.5,2.06.38,3.84-.14,5.14-1.81,1.26-1.63,1.36-3.43.44-5.28-.25-.5-.26-.5.31-.5,1.26,0,1.25,0,1.23-1.27,0-.32-.11-.4-.42-.4-1.04.02-2.09,0-3.13,0-.24,0-.47-.04-.7-.12-1.62-.55-3.17-.37-4.61.56-1.7,1.09-2.54,3.23-2.05,5.17.24.94.7,1.73,1.4,2.39.38.36.38.37-.11.58-.28.12-.53.27-.76.46-1.25,1.04-.96,2.87.55,3.46.19.07.39.14.67.25-.25.17-.42.28-.58.4-1.22.89-1.75,2.2-1.48,3.44.34,1.55,1.83,2.35,3.34,2.46,1.35.1,2.67-.05,3.95-.55,1.42-.56,2.73-1.28,3.65-2.53,1.1-1.49.67-3.62-.87-4.4Zm-7.96-7.01c0-1.93,1.01-3.32,2.7-3.66,1.08-.22,1.95.24,2.66,1.02,1.46,1.61,1.2,4.28-.53,5.6-1.61,1.22-3.89.39-4.63-1.67-.16-.44-.22-.89-.21-1.28Zm6.92,11.14c-.82.96-1.94,1.39-3.13,1.67-.49.12-1,.18-1.46.17-.66,0-1.26-.07-1.82-.37-1.22-.64-1.48-2.12-.52-3.11.65-.67,1.42-1.11,2.41-1.07,1.12.03,2.23,0,3.35.06.6.04,1.19.12,1.47.73.31.68.19,1.34-.3,1.91Z"/>
        <path class="cls-5" d="m356.22,352.83c0-.21-.05-.32-.28-.35-.48-.08-.73-.42-.85-.87-.08-.32-.13-.64-.13-.97,0-1.01,0-2.03,0-3.04,0-1.03,0-2.05,0-3.08,0-.44-.09-.86-.26-1.26-.72-1.72-2.12-2.41-3.88-2.51-1.4-.08-2.7.38-3.99.83-.69.24-.68.24-.4.93.36.86.35.85,1.22.52,1.08-.41,2.18-.71,3.35-.58,1.12.13,1.73.69,1.95,1.77.11.54.04,1.1.05,1.65,0,.26-.19.26-.38.26-.87,0-1.73.04-2.58.18-1.32.21-2.58.55-3.69,1.35-1.77,1.28-1.94,4.1-.29,5.45,1.19.97,2.57,1.17,4.04.9,1-.18,1.87-.67,2.62-1.35.22-.2.35-.28.56.06.58.94,1.5,1.35,2.57,1.49.29.04.37-.07.36-.34-.01-.34,0-.68,0-1.03Zm-3.89-1.53c-1.13.97-2.38,1.49-3.9,1.13-1.55-.37-2.18-2.16-1.18-3.41.66-.82,1.6-1.1,2.57-1.31.92-.2,1.86-.22,2.8-.23.31,0,.43.11.41.42-.02.4,0,.8,0,1.21,0,.17-.02.34,0,.51,0,.02,0,.05,0,.07.12.7-.2,1.19-.71,1.62Z"/>
        <path class="cls-5" d="m379.32,341.95c-2.08-1.99-5.86-1.76-7.69.45-1.2,1.44-1.7,3.1-1.68,5.48,0,1.1.23,2.13.88,3.39,1.73,3.34,6.29,3.96,8.84,1.2,1.22-1.32,1.71-2.94,1.76-4.7.07-2.21-.44-4.22-2.11-5.81Zm-.5,8.5c-.67,1.31-1.73,2.11-3.24,2.06-1.61-.05-2.61-1.03-3.22-2.44-.37-.84-.51-1.74-.49-2.66,0-1.48.32-2.86,1.33-4.01,1.35-1.54,3.7-1.51,5.03.05.63.73.98,1.59,1.14,2.53.27,1.54.17,3.06-.55,4.48Z"/>
      </g>
    </g>
    <g class="cls-14">
      <path class="cls-2" d="m376.31,118.83c-3.94,0-8.24,2.1-12.78,6.24-2.15,1.95-4.03,4.05-5.4,5.73,0,0,2.21,2.49,4.63,5.16,1.31-1.62,3.19-3.81,5.37-5.79,4.03-3.69,6.66-4.44,8.18-4.44,5.67,0,10.27,4.65,10.27,10.41s-4.6,10.35-10.27,10.41c-.27,0-.6-.03-.99-.12,1.64.75,3.43,1.29,5.11,1.29,10.39,0,12.42-7.02,12.54-7.53.3-1.29.48-2.64.48-4.02-.03-9.57-7.7-17.34-17.14-17.34Z"/>
      <path class="cls-6" d="m340.02,153.41c3.94,0,8.24-2.1,12.78-6.24,2.15-1.95,4.03-4.05,5.4-5.73,0,0-2.21-2.49-4.63-5.16-1.31,1.62-3.19,3.81-5.37,5.79-4.03,3.66-6.69,4.44-8.18,4.44-5.67,0-10.27-4.65-10.27-10.41s4.6-10.35,10.27-10.41c.27,0,.6.03.99.12-1.64-.75-3.43-1.29-5.11-1.29-10.39,0-12.42,7.02-12.54,7.53-.3,1.29-.48,2.64-.48,4.02,0,9.57,7.67,17.34,17.14,17.34Z"/>
      <path class="cls-1" d="m347.92,130.32c-1.13-1.08-6.69-5.49-12-5.64-9.47-.23-12.25,6.51-12.49,7.38,1.81-7.56,8.58-13.19,16.61-13.22,6.55,0,13.18,6.29,18.07,11.97,0,0,.02-.02.02-.03,0,0,2.21,2.49,4.63,5.16,0,0,2.75,3.18,5.67,5.97,1.13,1.08,6.66,5.43,11.97,5.58,9.73.27,12.42-6.84,12.57-7.38-1.79,7.59-8.57,13.26-16.63,13.29-6.56,0-13.18-6.29-18.09-11.97,0,.01-.02.02-.03.03,0,0-2.21-2.49-4.63-5.16,0,0-2.75-3.18-5.67-5.97Z"/>
      <g>
        <path class="cls-5" d="m406.32,174.9c.31,0,.53.13.66.34.06.13.15.38-.09.72l-3.61,5.51v3.76c0,.5-.31.81-.81.81h-.5c-.5,0-.81-.31-.81-.81v-3.76l-3.65-5.51c-.22-.38-.16-.63-.09-.75.09-.22.34-.34.66-.34h.65c.41,0,.68.16.87.5l2.59,4.16,2.62-4.16c.19-.31.47-.47.87-.47h.65Z"/>
        <path class="cls-5" d="m333.14,174.9h-5.67c-.5,0-.81.31-.81.81v9.55c0,.5.31.81.81.81h.5c.5,0,.81-.31.81-.81v-3.76h3.71c.5,0,.81-.34.81-.81v-.22c0-.5-.31-.81-.81-.81h-3.71v-2.94h4.36c.5,0,.81-.31.81-.81v-.22c0-.47-.31-.78-.81-.78Z"/>
        <path class="cls-8" d="m313.06,174.9h-2.9c-.5,0-.81.31-.81.81v9.55c0,.5.31.81.81.81h2.93c3.37,0,5.7-2.28,5.7-5.57-.03-3.29-2.37-5.6-5.73-5.6Zm3.55,5.57c0,2.19-1.46,3.72-3.58,3.72h-1.56v-7.48h1.56c2.12.03,3.58,1.57,3.58,3.76Z"/>
        <path class="cls-5" d="m343.86,174.9h.5c.5,0,.81.31.81.81v9.55c0,.5-.31.81-.81.81h-.5c-.5,0-.81-.31-.81-.81v-9.55c0-.5.31-.81.81-.81Z"/>
        <path class="cls-5" d="m362.31,174.9h-.5c-.5,0-.81.31-.81.81v6.35l-4.95-6.73c-.22-.31-.5-.44-.87-.44h-.22c-.5,0-.81.31-.81.81v9.55c0,.5.31.81.81.81h.5c.5,0,.81-.31.81-.81v-6.39l4.95,6.76c.22.31.5.44.87.44h.22c.5,0,.81-.31.81-.81v-9.55c0-.5-.31-.81-.81-.81Z"/>
        <path class="cls-5" d="m372.91,174.9h.5c.47,0,.81.31.81.81v9.55c0,.5-.31.81-.81.81h-.5c-.5,0-.81-.31-.81-.81v-9.55c0-.5.31-.81.81-.81Z"/>
        <path class="cls-5" d="m390.67,174.9h-7.48c-.47,0-.81.31-.81.81v.22c0,.47.31.81.81.81h2.68v8.51c0,.5.31.81.81.81h.5c.5,0,.81-.31.81-.81v-8.51h2.68c.5,0,.81-.31.81-.81v-.22c0-.5-.31-.81-.81-.81Z"/>
      </g>
    </g>
  </g>
</svg>