<?xml version="1.0" encoding="UTF-8"?>
<svg id="Layer_2" data-name="Layer 2" xmlns="http://www.w3.org/2000/svg" viewBox="0 0 462.78 462.78">
  <defs>
    <style>
      .cls-1 {
        fill: none;
      }

      .cls-1, .cls-2 {
        stroke-width: 0px;
      }

      .cls-2 {
        fill: #fff;
      }
    </style>
  </defs>
  <g id="Layer_2-2" data-name="Layer 2">
    <path class="cls-1" d="m231.39,462.78c-61.81,0-119.91-24.07-163.62-67.77C24.07,351.3,0,293.19,0,231.39S24.07,111.48,67.77,67.77C111.48,24.07,169.58,0,231.39,0s119.91,24.07,163.62,67.77,67.77,101.81,67.77,163.62-24.07,119.91-67.77,163.62-101.81,67.77-163.62,67.77Zm0-461.78C104.35,1,1,104.35,1,231.39s103.35,230.39,230.39,230.39,230.39-103.35,230.39-230.39S358.43,1,231.39,1Z"/>
    <g>
      <path class="cls-2" d="m354.55,445.58c.42-.24.72-.5.92-.78.2-.28.3-.57.33-.87.02-.3-.02-.6-.12-.91-.11-.31-.24-.61-.41-.91l-.17-.29,2.17-1.25.17.3c.79,1.37,1.04,2.62.74,3.77-.29,1.15-1.12,2.12-2.49,2.91-1.31.76-2.58.96-3.8.6-1.23-.36-2.28-1.3-3.16-2.83l-1.47-2.56c-.42-.73-.7-1.45-.84-2.15-.14-.7-.14-1.35,0-1.97.14-.61.41-1.18.82-1.69.4-.52.93-.96,1.59-1.34.68-.39,1.34-.64,1.97-.74s1.24-.07,1.81.09c.57.17,1.09.46,1.58.88.48.42.91.96,1.29,1.62l.17.29-2.16,1.25-.17-.3c-.16-.27-.35-.53-.57-.76-.22-.24-.47-.42-.75-.55s-.59-.19-.93-.17c-.34.01-.71.14-1.1.36-.36.21-.63.46-.82.74-.18.29-.29.6-.33.94-.04.34-.01.68.09,1.04.1.36.24.71.44,1.05l1.66,2.89c.21.37.45.69.71.96s.53.47.83.6c.3.14.61.19.95.16.34-.03.7-.15,1.08-.37Z"/>
      <path class="cls-2" d="m369.98,438.38l-2.1,1.35-2.15-3.34c-.17-.25-.36-.42-.6-.49-.24-.07-.51-.01-.81.19l-2.42,1.56,2.71,4.2-2.1,1.35-7.18-11.13,4.26-2.75c.57-.37,1.13-.61,1.66-.74.54-.12,1.04-.14,1.51-.04s.91.27,1.3.55c.39.27.73.62,1,1.04l.25.38c.29.46.45.96.46,1.52.01.56-.17,1.1-.54,1.64l.18.29c.4-.2.79-.24,1.16-.14.37.1.68.34.92.71l2.48,3.85Zm-9.38-2.73l2-1.29c.51-.33.82-.7.93-1.11.11-.41.03-.83-.25-1.27l-.12-.19c-.24-.37-.58-.61-1.02-.71-.44-.1-.91.02-1.42.34l-2,1.29,1.89,2.93Z"/>
      <path class="cls-2" d="m372.85,430.7l-.46.33-8.1-4.76,2.21-1.59,5.9,3.54.28-.2-1.48-6.72,2.21-1.59,1.93,9.2-.46.33,2.72,3.78-2.03,1.46-2.72-3.78Z"/>
      <path class="cls-2" d="m381.99,423.45l3.12,3.9-1.95,1.56-8.26-10.35,4.05-3.23c.53-.42,1.06-.71,1.6-.85s1.04-.18,1.53-.1c.49.07.94.24,1.36.49.42.25.78.57,1.08.94l.28.35c.31.38.54.81.7,1.29.16.48.23.96.2,1.46-.03.5-.17,1-.42,1.49-.25.49-.65.95-1.18,1.38l-2.1,1.68Zm-1.49-1.86l1.91-1.52c.43-.35.68-.74.74-1.18.06-.44-.06-.84-.35-1.22l-.14-.18c-.3-.37-.67-.58-1.11-.62-.44-.04-.88.12-1.31.47l-1.91,1.52,2.17,2.72Z"/>
      <path class="cls-2" d="m383.87,411.32l7.15-6.31,1.58,1.79-2.64,2.33,7.19,8.14-1.87,1.65-7.19-8.14-2.64,2.33-1.58-1.79Z"/>
      <path class="cls-2" d="m396.24,407.17c-1.2-1.23-1.82-2.48-1.86-3.76s.48-2.45,1.57-3.52,2.28-1.56,3.56-1.49c1.28.07,2.52.72,3.72,1.95l2.06,2.11c1.23,1.26,1.86,2.53,1.89,3.79.03,1.26-.51,2.43-1.6,3.49-1.09,1.07-2.27,1.57-3.53,1.52-1.26-.05-2.51-.71-3.74-1.98l-2.06-2.11Zm7.75.95c.33-.32.55-.63.66-.95.12-.32.15-.63.1-.96s-.17-.64-.38-.95c-.2-.31-.46-.63-.76-.95l-2.27-2.33c-.29-.3-.6-.55-.92-.75-.32-.2-.64-.33-.96-.39s-.64-.04-.97.06c-.33.1-.64.3-.95.6s-.51.61-.62.94-.13.65-.08.97.17.64.36.97.43.63.73.93l2.27,2.33c.31.32.62.58.93.79.31.21.62.34.95.4.32.06.64.03.96-.08.32-.11.64-.32.96-.64Z"/>
      <path class="cls-2" d="m408.65,396.65l3.86-4.17,4.92,4.55-1.54,1.67-1.08-1-.23.25c.26.45.36.94.32,1.48-.05.54-.36,1.13-.94,1.76-.41.44-.88.78-1.41,1.02-.53.23-1.09.34-1.68.33-.59-.02-1.21-.17-1.85-.45-.64-.28-1.28-.73-1.93-1.33l-2.28-2.11c-.63-.58-1.1-1.19-1.42-1.82-.32-.63-.5-1.26-.53-1.89-.04-.63.06-1.24.3-1.85s.61-1.17,1.11-1.71c.51-.56,1.06-.97,1.65-1.24.58-.27,1.18-.41,1.78-.42.6,0,1.19.11,1.77.35.58.24,1.11.59,1.6,1.04l.17.15-1.7,1.83-.17-.15c-.58-.54-1.16-.8-1.74-.78-.58.02-1.12.31-1.63.85-.48.52-.7,1.1-.66,1.76.04.65.48,1.37,1.32,2.15l2.06,1.9c1.5,1.39,2.81,1.47,3.95.25.51-.55.74-1.1.71-1.65-.03-.55-.29-1.06-.78-1.51l-2.16,2.33-1.75-1.62Z"/>
      <path class="cls-2" d="m425.33,387.69l-1.6,1.92-3.05-2.55c-.23-.19-.47-.29-.72-.29s-.49.14-.72.42l-1.85,2.21,3.83,3.21-1.6,1.92-10.16-8.5,3.25-3.89c.44-.52.89-.92,1.37-1.2.48-.28.96-.44,1.43-.49.48-.05.95,0,1.4.14s.88.38,1.26.7l.35.29c.42.35.71.79.89,1.31.18.53.17,1.1-.03,1.73l.26.22c.32-.31.68-.47,1.07-.48.39-.01.75.12,1.09.41l3.51,2.94Zm-9.76.17l1.53-1.83c.39-.46.58-.91.56-1.33-.02-.42-.22-.8-.62-1.13l-.17-.15c-.34-.28-.73-.41-1.18-.37-.45.04-.87.29-1.26.75l-1.53,1.83,2.67,2.23Z"/>
      <path class="cls-2" d="m429.37,377.78l-2.71,3.59,1.88,2.22-1.57,2.08-8.67-10.5,2.83-3.75,12.48,5.46-1.57,2.08-2.65-1.2Zm-4.3,1.73l2.06-2.73-6.33-2.86-.21.27,4.47,5.32Z"/>
      <path class="cls-2" d="m432.37,369.89l4.13,2.81-1.4,2.07-10.96-7.44,2.91-4.29c.38-.56.81-.99,1.27-1.29.47-.29.94-.48,1.43-.55.49-.07.97-.05,1.44.06s.91.31,1.31.58l.38.26c.41.28.76.62,1.05,1.02s.5.85.62,1.34c.12.49.13,1,.04,1.55-.1.55-.33,1.1-.72,1.66l-1.51,2.22Zm-1.97-1.34l1.37-2.02c.31-.46.43-.91.36-1.34-.07-.44-.3-.79-.7-1.06l-.19-.13c-.4-.27-.81-.36-1.24-.26-.43.1-.8.37-1.11.83l-1.37,2.02,2.88,1.96Z"/>
      <path class="cls-2" d="m430.65,357.61l1.3-2.13,4.62,2.81,2.22-3.65-4.62-2.81,1.3-2.13,11.32,6.88-1.3,2.13-4.66-2.83-2.22,3.65,4.66,2.83-1.3,2.13-11.32-6.88Z"/>
      <path class="cls-2" d="m445.93,348.53l-.27.5-9.37-.74,1.3-2.4,6.86.61.16-.3-4.26-5.4,1.3-2.4,5.75,7.43-.27.5,4.1,2.21-1.19,2.2-4.09-2.21Z"/>
    </g>
  </g>
</svg>