<?xml version="1.0" encoding="UTF-8"?>
<svg id="Layer_2" data-name="Layer 2" xmlns="http://www.w3.org/2000/svg" xmlns:xlink="http://www.w3.org/1999/xlink" viewBox="0 0 461.78 461.78">
  <defs>
    <style>
      .cls-1 {
        fill: #7fb900;
      }

      .cls-1, .cls-2, .cls-3, .cls-4, .cls-5, .cls-6, .cls-7, .cls-8, .cls-9, .cls-10, .cls-11, .cls-12, .cls-13, .cls-14, .cls-15, .cls-16, .cls-17 {
        stroke-width: 0px;
      }

      .cls-2 {
        fill: url(#linear-gradient);
      }

      .cls-3 {
        fill: #3253db;
      }

      .cls-4 {
        fill: #e94335;
      }

      .cls-18 {
        filter: url(#drop-shadow-4);
      }

      .cls-5 {
        fill: #4284f3;
      }

      .cls-6 {
        fill: #242526;
      }

      .cls-19 {
        filter: url(#drop-shadow-3);
      }

      .cls-7 {
        opacity: .02;
      }

      .cls-7, .cls-8 {
        fill: none;
      }

      .cls-20 {
        filter: url(#drop-shadow-1);
      }

      .cls-21 {
        filter: url(#drop-shadow-6);
      }

      .cls-9 {
        fill: #fff;
      }

      .cls-10 {
        fill: #fabb05;
      }

      .cls-22 {
        filter: url(#drop-shadow-5);
      }

      .cls-11 {
        fill: url(#linear-gradient-2);
      }

      .cls-12 {
        fill: #0080fa;
      }

      .cls-13 {
        fill: #00529e;
      }

      .cls-23 {
        filter: url(#drop-shadow-2);
      }

      .cls-14 {
        fill: #f15022;
      }

      .cls-15 {
        fill: #34a753;
      }

      .cls-16 {
        fill: #00a3ee;
      }

      .cls-17 {
        fill: #ffb800;
      }
    </style>
    <filter id="drop-shadow-1" filterUnits="userSpaceOnUse">
      <feOffset dx="2" dy="2"/>
      <feGaussianBlur result="blur" stdDeviation="4"/>
      <feFlood flood-color="#000" flood-opacity="1"/>
      <feComposite in2="blur" operator="in"/>
      <feComposite in="SourceGraphic"/>
    </filter>
    <filter id="drop-shadow-2" filterUnits="userSpaceOnUse">
      <feOffset dx="2" dy="2"/>
      <feGaussianBlur result="blur-2" stdDeviation="4"/>
      <feFlood flood-color="#000" flood-opacity="1"/>
      <feComposite in2="blur-2" operator="in"/>
      <feComposite in="SourceGraphic"/>
    </filter>
    <linearGradient id="linear-gradient" x1="329.52" y1="2964.09" x2="361.09" y2="2962.5" gradientTransform="translate(0 3034.43) scale(1 -1)" gradientUnits="userSpaceOnUse">
      <stop offset="0" stop-color="#0064e0"/>
      <stop offset=".4" stop-color="#0064e0"/>
      <stop offset=".83" stop-color="#0073ed"/>
      <stop offset="1" stop-color="#0081fa"/>
    </linearGradient>
    <linearGradient id="linear-gradient-2" x1="326.19" y1="2956.37" x2="326.19" y2="2968" gradientTransform="translate(0 3034.43) scale(1 -1)" gradientUnits="userSpaceOnUse">
      <stop offset="0" stop-color="#0081fa"/>
      <stop offset="1" stop-color="#0064df"/>
    </linearGradient>
    <filter id="drop-shadow-3" filterUnits="userSpaceOnUse">
      <feOffset dx="2" dy="2"/>
      <feGaussianBlur result="blur-3" stdDeviation="4"/>
      <feFlood flood-color="#000" flood-opacity="1"/>
      <feComposite in2="blur-3" operator="in"/>
      <feComposite in="SourceGraphic"/>
    </filter>
    <filter id="drop-shadow-4" filterUnits="userSpaceOnUse">
      <feOffset dx="2" dy="2"/>
      <feGaussianBlur result="blur-4" stdDeviation="4"/>
      <feFlood flood-color="#000" flood-opacity="1"/>
      <feComposite in2="blur-4" operator="in"/>
      <feComposite in="SourceGraphic"/>
    </filter>
    <filter id="drop-shadow-5" filterUnits="userSpaceOnUse">
      <feOffset dx="2" dy="2"/>
      <feGaussianBlur result="blur-5" stdDeviation="4"/>
      <feFlood flood-color="#000" flood-opacity="1"/>
      <feComposite in2="blur-5" operator="in"/>
      <feComposite in="SourceGraphic"/>
    </filter>
    <filter id="drop-shadow-6" filterUnits="userSpaceOnUse">
      <feOffset dx="2" dy="2"/>
      <feGaussianBlur result="blur-6" stdDeviation="4"/>
      <feFlood flood-color="#000" flood-opacity="1"/>
      <feComposite in2="blur-6" operator="in"/>
      <feComposite in="SourceGraphic"/>
    </filter>
  </defs>
  <g id="Layer_2-2" data-name="Layer 2">
    <circle class="cls-7" cx="230.89" cy="230.89" r="230.89"/>
    <g class="cls-20">
      <g>
        <path class="cls-5" d="m241.69,46.7c0-1.56-.14-3.06-.4-4.51h-20.75v8.53h11.85c-.52,2.74-2.08,5.07-4.43,6.63v5.55h7.15c4.17-3.84,6.57-9.49,6.57-16.2Z"/>
        <path class="cls-15" d="m220.54,68.22c5.95,0,10.93-1.96,14.58-5.33l-7.15-5.55c-1.96,1.32-4.47,2.12-7.43,2.12-5.73,0-10.59-3.86-12.34-9.07h-7.33v5.69c3.62,7.19,11.05,12.14,19.66,12.14Z"/>
        <path class="cls-10" d="m208.21,50.38c-.44-1.32-.7-2.72-.7-4.19s.26-2.86.7-4.19v-5.69h-7.33c-1.5,2.96-2.36,6.31-2.36,9.87s.86,6.91,2.36,9.87l5.71-4.45s1.62-1.24,1.62-1.24Z"/>
        <path class="cls-4" d="m220.54,32.94c3.24,0,6.13,1.12,8.43,3.28l6.31-6.31c-3.82-3.56-8.79-5.75-14.74-5.75-8.61,0-16.04,4.95-19.66,12.16l7.33,5.69c1.74-5.21,6.61-9.07,12.34-9.07Z"/>
        <path class="cls-8" d="m198.52,24.17h44.06v44.06h-44.06V24.17Z"/>
      </g>
      <g>
        <path class="cls-9" d="m196.23,79.77h3.32v4.52c-.54.18-1.06.3-1.56.38-.5.07-1.04.11-1.62.11-1.36,0-2.42-.4-3.16-1.21-.74-.81-1.11-1.95-1.11-3.42s.42-2.59,1.25-3.41c.83-.82,1.98-1.23,3.45-1.23.94,0,1.83.18,2.67.54l-.52,1.23c-.73-.34-1.46-.51-2.19-.51-.96,0-1.72.3-2.28.91s-.84,1.43-.84,2.48c0,1.1.25,1.94.76,2.51.5.57,1.23.86,2.17.86.48,0,.99-.06,1.53-.18v-2.32h-1.87v-1.26Z"/>
        <path class="cls-9" d="m210.97,80.14c0,1.47-.37,2.61-1.1,3.42s-1.77,1.22-3.12,1.22-2.4-.4-3.13-1.21c-.73-.81-1.09-1.95-1.09-3.44s.37-2.63,1.1-3.43c.73-.8,1.78-1.2,3.14-1.2s2.38.4,3.11,1.21c.73.81,1.1,1.95,1.1,3.42Zm-6.88,0c0,1.11.22,1.95.67,2.52.45.57,1.11.86,1.99.86s1.54-.28,1.98-.85c.45-.57.67-1.41.67-2.53s-.22-1.94-.66-2.51c-.44-.57-1.1-.86-1.97-.86s-1.55.29-2,.86c-.45.57-.67,1.41-.67,2.51Z"/>
        <path class="cls-9" d="m222.17,80.14c0,1.47-.37,2.61-1.1,3.42s-1.77,1.22-3.12,1.22-2.4-.4-3.13-1.21c-.73-.81-1.09-1.95-1.09-3.44s.37-2.63,1.1-3.43c.73-.8,1.78-1.2,3.14-1.2s2.38.4,3.11,1.21c.73.81,1.1,1.95,1.1,3.42Zm-6.88,0c0,1.11.22,1.95.67,2.52.45.57,1.11.86,1.99.86s1.54-.28,1.98-.85c.45-.57.67-1.41.67-2.53s-.22-1.94-.66-2.51c-.44-.57-1.1-.86-1.97-.86s-1.55.29-2,.86c-.45.57-.67,1.41-.67,2.51Z"/>
        <path class="cls-9" d="m229.05,79.77h3.32v4.52c-.54.18-1.06.3-1.56.38-.5.07-1.04.11-1.62.11-1.36,0-2.42-.4-3.16-1.21-.74-.81-1.11-1.95-1.11-3.42s.42-2.59,1.25-3.41c.83-.82,1.98-1.23,3.45-1.23.94,0,1.83.18,2.67.54l-.52,1.23c-.73-.34-1.46-.51-2.19-.51-.96,0-1.72.3-2.28.91s-.84,1.43-.84,2.48c0,1.1.25,1.94.76,2.51.5.57,1.23.86,2.17.86.48,0,.99-.06,1.53-.18v-2.32h-1.87v-1.26Z"/>
        <path class="cls-9" d="m235.79,84.66v-9.01h1.47v7.75h3.82v1.26h-5.29Z"/>
        <path class="cls-9" d="m248.99,84.66h-5.1v-9.01h5.1v1.25h-3.62v2.45h3.4v1.23h-3.4v2.83h3.62v1.25Z"/>
      </g>
    </g>
    <g class="cls-23">
      <g>
        <path id="Logo0" class="cls-12" d="m324.53,75.98c0,1.75.38,3.09.89,3.91.66,1.06,1.64,1.52,2.64,1.52,1.29,0,2.47-.32,4.75-3.47,1.82-2.52,3.97-6.07,5.42-8.29l2.45-3.76c1.7-2.61,3.67-5.52,5.93-7.49,1.84-1.61,3.83-2.5,5.83-2.5,3.36,0,6.56,1.95,9.01,5.6,2.68,4,3.98,9.03,3.98,14.23,0,3.09-.61,5.36-1.65,7.15-1,1.73-2.95,3.47-6.23,3.47v-4.95c2.81,0,3.51-2.58,3.51-5.54,0-4.21-.98-8.89-3.15-12.23-1.54-2.37-3.52-3.82-5.71-3.82-2.37,0-4.27,1.79-6.41,4.97-1.14,1.69-2.31,3.75-3.62,6.08l-1.44,2.56c-2.9,5.14-3.64,6.32-5.09,8.25-2.54,3.39-4.71,4.67-7.57,4.67-3.39,0-5.53-1.47-6.86-3.68-1.08-1.8-1.62-4.17-1.62-6.86l4.95.18Z"/>
        <path id="Logo1" class="cls-2" d="m323.49,61.85c2.27-3.5,5.55-5.95,9.3-5.95,2.18,0,4.34.64,6.6,2.49,2.47,2.02,5.1,5.34,8.39,10.81l1.18,1.96c2.84,4.74,4.46,7.18,5.41,8.32,1.22,1.48,2.07,1.92,3.18,1.92,2.81,0,3.51-2.58,3.51-5.54l4.37-.14c0,3.09-.61,5.36-1.65,7.15-1,1.73-2.95,3.47-6.23,3.47-2.04,0-3.85-.44-5.85-2.33-1.54-1.45-3.33-4.02-4.72-6.33l-4.11-6.87c-2.06-3.45-3.96-6.02-5.05-7.18-1.18-1.25-2.69-2.76-5.11-2.76-1.96,0-3.62,1.37-5.01,3.47l-4.22-2.5Z"/>
        <path id="Logo2" class="cls-11" d="m332.71,60.88c-1.96,0-3.62,1.37-5.01,3.47-1.97,2.97-3.17,7.39-3.17,11.63,0,1.75.38,3.09.89,3.91l-4.22,2.78c-1.08-1.8-1.62-4.17-1.62-6.86,0-4.9,1.35-10.01,3.9-13.96,2.27-3.5,5.55-5.95,9.3-5.95l-.08,4.98Z"/>
      </g>
      <path id="Text" class="cls-9" d="m317.8,94.21h2.96l5.03,9.1,5.03-9.1h2.89v14.95h-2.41v-11.46l-4.41,7.94h-2.26l-4.41-7.94v11.46h-2.41v-14.95Zm23.48,5.58c-1.73,0-2.77,1.3-3.02,2.92h5.87c-.12-1.66-1.08-2.92-2.85-2.92h0Zm-5.42,3.83c0-3.39,2.19-5.86,5.46-5.86s5.13,2.44,5.13,6.05v.66h-8.19c.29,1.75,1.46,2.94,3.33,2.94,1.5,0,2.43-.46,3.32-1.29l1.28,1.57c-1.21,1.11-2.74,1.75-4.69,1.75-3.53,0-5.64-2.58-5.64-5.81Zm13.51-3.62h-2.22v-1.98h2.22v-3.27h2.33v3.27h3.38v1.98h-3.38v5.01c0,1.71.55,2.32,1.89,2.32.61,0,.97-.05,1.48-.14v1.95c-.65.18-1.26.27-1.93.27-2.51,0-3.77-1.37-3.77-4.12v-5.29Zm15.51,1.92c-.47-1.18-1.51-2.05-3.04-2.05-1.99,0-3.27,1.41-3.27,3.72s1.17,3.73,3.17,3.73c1.57,0,2.69-.91,3.14-2.05v-3.34Zm2.33,7.24h-2.29v-1.56c-.64.92-1.8,1.83-3.69,1.83-3.03,0-5.05-2.54-5.05-5.84s2.07-5.83,5.18-5.83c1.54,0,2.74.61,3.56,1.7v-1.43h2.29v11.14Z"/>
    </g>
    <g class="cls-19">
      <path class="cls-9" d="m241.01,156.27v12.83h-2.23v-10.07h-.03l-3.98,10.07h-1.48l-4.07-10.07h-.03v10.07h-2.05v-12.83h3.21l3.68,9.5h.06l3.89-9.5s3.03,0,3.03,0Zm1.84.98c0-.36.12-.65.39-.89.27-.24.56-.36.92-.36.39,0,.71.12.95.36s.39.53.39.89-.12.65-.39.89c-.27.24-.56.36-.95.36s-.68-.12-.92-.36c-.24-.27-.39-.56-.39-.89Zm2.41,2.64v9.2h-2.17v-9.2s2.17,0,2.17,0Zm6.56,7.63c.33,0,.68-.06,1.07-.24.39-.15.74-.36,1.07-.59v2.02c-.36.21-.74.36-1.19.45s-.92.15-1.45.15c-1.37,0-2.46-.42-3.3-1.28-.86-.86-1.28-1.96-1.28-3.27,0-1.48.45-2.7,1.31-3.65s2.08-1.43,3.68-1.43c.42,0,.83.06,1.22.15.42.09.74.24.98.36v2.08c-.33-.24-.68-.45-1.01-.56-.36-.12-.71-.21-1.07-.21-.86,0-1.54.27-2.08.83s-.77,1.31-.77,2.26.27,1.66.77,2.17c.5.5,1.19.77,2.05.77Zm8.28-7.78c.18,0,.33,0,.48.03s.27.06.36.09v2.2c-.12-.09-.27-.18-.5-.24s-.48-.12-.8-.12c-.53,0-.98.24-1.34.68s-.56,1.13-.56,2.08v4.63h-2.17v-9.2h2.17v1.45h.03c.21-.5.5-.89.89-1.19.42-.27.89-.42,1.45-.42Zm.95,4.9c0-1.51.45-2.73,1.28-3.62.86-.89,2.05-1.34,3.56-1.34,1.43,0,2.55.42,3.36,1.28.8.86,1.22,2.02,1.22,3.47s-.45,2.67-1.28,3.56c-.86.89-2.02,1.34-3.5,1.34s-2.55-.42-3.38-1.25c-.83-.86-1.25-2.02-1.25-3.44Zm2.26-.09c0,.95.21,1.69.65,2.2s1.07.77,1.87.77,1.4-.24,1.81-.77c.42-.5.62-1.25.62-2.26s-.21-1.72-.62-2.26c-.42-.5-1.04-.77-1.78-.77-.8,0-1.4.27-1.84.8-.5.56-.71,1.31-.71,2.29Zm10.39-2.23c0,.3.09.56.3.74s.62.39,1.31.65c.86.36,1.48.74,1.81,1.16.36.45.53.95.53,1.57,0,.86-.33,1.54-1.01,2.08-.65.53-1.57.77-2.7.77-.39,0-.8-.06-1.28-.15s-.86-.21-1.19-.36v-2.14c.39.27.83.5,1.28.65s.86.24,1.25.24c.48,0,.86-.06,1.07-.21.24-.15.36-.36.36-.68,0-.3-.12-.53-.36-.77-.24-.21-.71-.45-1.37-.71-.8-.33-1.37-.71-1.69-1.13s-.5-.95-.5-1.6c0-.83.33-1.51.98-2.05s1.51-.8,2.55-.8c.33,0,.68.03,1.07.12s.74.18,1.01.27v2.11c-.3-.18-.62-.36-1.01-.5s-.77-.21-1.13-.21c-.42,0-.74.09-.95.24-.21.21-.33.42-.33.71Zm4.87,2.32c0-1.51.45-2.73,1.28-3.62.86-.89,2.05-1.34,3.56-1.34,1.43,0,2.55.42,3.36,1.28.8.86,1.22,2.02,1.22,3.47s-.45,2.67-1.28,3.56c-.86.89-2.02,1.34-3.5,1.34s-2.55-.42-3.38-1.25c-.8-.86-1.25-2.02-1.25-3.44Zm2.26-.09c0,.95.21,1.69.65,2.2s1.07.77,1.87.77,1.4-.24,1.81-.77c.42-.5.62-1.25.62-2.26s-.21-1.72-.62-2.26c-.42-.5-1.04-.77-1.78-.77-.8,0-1.4.27-1.84.8-.48.56-.71,1.31-.71,2.29Zm14.37-2.88h-3.24v7.42h-2.2v-7.42h-1.54v-1.78h1.54v-1.28c0-.95.33-1.75.95-2.38s1.43-.92,2.41-.92c.27,0,.5.03.71.03s.39.06.53.12v1.87c-.06-.03-.21-.09-.39-.15-.18-.06-.39-.09-.62-.09-.45,0-.8.15-1.04.42s-.36.71-.36,1.25v1.1h3.24v-2.08l2.17-.65v2.73h2.2v1.78h-2.2v4.31c0,.56.12.95.3,1.19.21.24.53.36.98.36.12,0,.27-.03.45-.09s.33-.12.45-.21v1.78c-.15.09-.36.15-.68.21-.33.06-.62.09-.95.09-.92,0-1.6-.24-2.05-.71-.45-.48-.68-1.22-.68-2.2l.03-4.69h0Z"/>
      <g>
        <rect class="cls-14" x="245.83" y="112.73" width="16.64" height="16.64"/>
        <rect class="cls-1" x="264.23" y="112.73" width="16.64" height="16.64"/>
        <rect class="cls-16" x="245.83" y="131.13" width="16.64" height="16.64"/>
        <rect class="cls-17" x="264.23" y="131.13" width="16.64" height="16.64"/>
      </g>
    </g>
    <g class="cls-18">
      <g>
        <path id="path818" class="cls-13" d="m419.4,190.71c0,1.86-1.5,3.36-3.35,3.36h-47.13c-1.85,0-3.35-1.5-3.35-3.36v-24.79c0-1.85,1.5-3.36,3.35-3.36h47.13c1.85,0,3.35,1.51,3.35,3.36v24.79"/>
        <g>
          <path id="path822" class="cls-9" d="m395.33,173.44l1.23-3.58h-4.83l-1.14,3.58h4.74"/>
          <path id="path824" class="cls-9" d="m387.56,173.44l-.38-3.58h-3.7l-1.89,3.58h5.96"/>
          <path id="path826" class="cls-9" d="m390.13,174.86l-1.82,5.72-.61-5.8-6.69-.25-3.01,5.68.85-5.76-4.64-.15-1.35,12.15h6.38l4.87-9.86.99,9.86h5.73l3.94-11.42-4.65-.17"/>
          <path id="path828" class="cls-9" d="m379.01,173.44l.54-3.64h-4.84l-.4,3.63h4.7"/>
          <path id="path830" class="cls-9" d="m406.94,169.86h-9.14l-1.19,3.58h8.25c2.28.06,3.4,1.92,2.62,4.22-.78,2.34-3.07,4.12-5.67,4.23-.67.04-.9.1-1.85.03l2.25-6.64-6.16-.22-3.79,11.39h9.14c4.6,0,9.64-3.63,11.19-8.29,1.55-4.67-1.04-8.3-5.66-8.3"/>
        </g>
      </g>
      <g>
        <path id="path832" class="cls-9" d="m342.44,201.79h2.91l2.1,9.04h.03l1.93-9.04h2.46l-3.06,12.01h-2.86l-2.16-9.14h-.03l-2.33,9.14h-2.93l-2.93-12.01h2.66l1.84,9.04h.03l2.33-9.04"/>
        <path id="path836" class="cls-9" d="m353.74,210.3c0,1.07.14,2.09,1.42,2.09.88,0,1.3-.32,1.54-1.08h2.25c-.22,2.07-1.83,2.75-3.78,2.75-2.85,0-4-1.61-4-4.42,0-2.5,1.46-4.44,4-4.44,1.57,0,2.87.53,3.56,2,.23.46.35.96.41,1.5.06.52.06,1.05.06,1.6h-5.46Zm2.89-1.67c0-.92-.26-1.77-1.47-1.77-1.14,0-1.39.85-1.42,1.77h2.89"/>
        <path id="path840" class="cls-9" d="m364.64,207.68c-.04-.57-.57-.81-1.14-.81-.68,0-.99.21-.99.75,0,1.32,4.76.57,4.76,3.69,0,1.82-2.22,2.75-3.77,2.75-1.95,0-3.64-.77-3.68-2.69h2.31c.05.65.63,1.02,1.37,1.02.68,0,1.2-.28,1.2-.93s-1.2-.96-1.7-1.07c-1.59-.39-3.07-.74-3.07-2.67,0-1.76,2.12-2.52,3.58-2.52,1.77,0,3.25.63,3.37,2.48h-2.23"/>
        <path id="path844" class="cls-9" d="m368.35,205.46v-1.65l2.49-.9v2.56h1.88v1.65h-1.88v3.89c0,1.08.17,1.39,1.03,1.39.27,0,.53-.04.8-.05v1.46c-.28.13-1.61.26-1.96.26-1.95,0-2.36-1.02-2.36-2.83v-4.12h-.92v-1.65h.92"/>
        <path id="path848" class="cls-9" d="m375.57,210.3c0,1.07.15,2.09,1.43,2.09.86,0,1.29-.32,1.52-1.08h2.25c-.21,2.07-1.82,2.75-3.77,2.75-2.87,0-4.01-1.61-4.01-4.42,0-2.5,1.47-4.44,4.01-4.44,1.56,0,2.87.53,3.56,2,.23.46.35.96.41,1.5.06.52.06,1.05.06,1.6h-5.47Zm2.89-1.67c0-.92-.25-1.77-1.46-1.77-1.15,0-1.39.85-1.43,1.77h2.89"/>
        <path id="path852" class="cls-9" d="m386.14,207.56c-.41.04-.97.27-1.21.62-.27.46-.32.93-.34,1.47v4.14h-2.48v-6.69c-.01-.35-.06-1.05-.1-1.65h2.28l.05,1.51h.03c.54-1.32,1.6-1.65,2.85-1.61l-1.08,2.21"/>
        <path id="path856" class="cls-9" d="m390.35,206.42l.04.05c.52-.76,1.3-1.27,2.56-1.27.84,0,2.45.62,2.75,1.83.13.52.17,1.05.17,1.33v5.43h-2.49v-5.02c-.03-.89-.27-1.91-1.5-1.91-.79,0-1.47.7-1.5,1.91v5.02h-2.5v-8.34h2.48v.96"/>
        <path id="path866" class="cls-9" d="m403.24,201.8h4.09c3.74-.03,6.07,1.83,6.07,6s-2.33,6.04-6.07,6h-4.09v-12.01Zm2.58,10.02h1.33c3.06.03,3.51-2.09,3.51-4.01s-.45-4.03-3.51-4h-1.33v8.02"/>
        <path id="path870" class="cls-9" d="m414.44,201.8h2.67v2.14h-2.67v-2.14Zm.08,3.67h2.49v8.35h-2.49v-8.35Z"/>
        <path id="path874" class="cls-9" d="m426.37,213.07c0,1.94-.43,4.07-4.09,4.04-1.85,0-3.82-.45-3.87-2.7h2.36c.04.75.7,1.03,1.38,1.03,1.9,0,1.83-1.73,1.73-2.94h-.04c-.52.81-1.39,1.15-2.34,1.15-2.27,0-3.43-2.13-3.43-4.16,0-2.13,1.21-4.29,3.55-4.29,1.11,0,1.82.37,2.22,1.23h.04v-.97h2.49v7.6Zm-4.11-1.08c1.37,0,1.61-1.39,1.61-2.48,0-1.23-.25-2.63-1.61-2.63s-1.61,1.41-1.61,2.63c0,1.08.25,2.48,1.61,2.48"/>
        <path id="path884" class="cls-9" d="m427.77,201.8h2.66v2.14h-2.66v-2.14Zm.08,3.67h2.5v8.35h-2.5v-8.35Z"/>
        <path id="path888" class="cls-9" d="m432.16,205.47v-1.65l2.49-.89v2.54h1.88v1.67h-1.88v3.87c0,1.1.17,1.39,1.03,1.39.27,0,.53-.04.8-.05v1.46c-.28.14-1.61.26-1.96.26-1.95,0-2.36-1.02-2.36-2.83v-4.11h-.99v-1.67h.99"/>
        <path id="path892" class="cls-9" d="m437.49,207.83c.03-1.05.48-1.7,1.14-2.08.68-.4,1.56-.54,2.47-.54,1.68,0,3.55.62,3.55,3.14v4.56c.03.41.09.66.12.9h-2.25c-.04-.37-.08-.76-.08-1.11h-.04c-.56.97-1.42,1.37-2.56,1.37-1.56,0-2.72-.9-2.72-2.53,0-.58.26-2,1.78-2.65.99-.43,2.26-.48,3.25-.45v-.77c0-.35-.26-1.03-1.15-1.03s-1.15.81-1.11,1.2h-2.4Zm2.01,3.37c0,.7.52,1.2,1.21,1.2,1.38,0,1.43-1.54,1.43-2.52-.86-.01-2.65-.03-2.65,1.32"/>
        <rect class="cls-9" x="446.2" y="201.8" width="2.49" height="12.01"/>
      </g>
    </g>
    <g class="cls-22">
      <path class="cls-3" d="m389.83,309.27c0-11.35-8.84-19.88-19.81-19.88s-19.81,8.53-19.81,19.91,8.84,19.91,19.81,19.91c1.87,0,3.68-.25,5.39-.73l2.16,5.55c.22.6.67.98,1.46.98h3.42c.82,0,1.43-.54,1.05-1.58l-2.79-7.26c5.48-3.46,9.13-9.57,9.13-16.9Zm-11.19,11.6l-2.5-6.5c-.22-.54-.67-1.05-1.62-1.05h-3.27c-.82,0-1.46.54-1.08,1.59l3.3,8.53c-1.08.29-2.25.41-3.46.41-8.02,0-13.73-6.31-13.73-14.55s5.71-14.55,13.73-14.55,13.73,6.31,13.73,14.55c0,4.82-1.93,8.94-5.1,11.57Z"/>
      <path class="cls-9" d="m352.12,345.83c.21,0,.39.17.39.39v7.39c0,.21-.19.38-.39.38h-1c-.19,0-.38-.15-.38-.36v-.68c-.51.74-1.38,1.26-2.65,1.26-2.12,0-3.43-1.41-3.43-3.5v-4.51c0-.21.19-.38.39-.38h1c.21,0,.38.17.38.38v4.22c0,1.36.71,2.26,2.12,2.26s2.19-.93,2.19-2.24v-4.24c0-.21.19-.38.38-.38h1"/>
      <path class="cls-9" d="m343.54,347.95c0-3.55-2.77-6.22-6.2-6.22s-6.2,2.67-6.2,6.23,2.77,6.23,6.2,6.23c.59,0,1.15-.08,1.69-.23l.68,1.74c.07.19.21.31.46.31h1.07c.26,0,.45-.17.33-.5l-.87-2.27c1.72-1.08,2.86-3,2.86-5.29Zm-3.5,3.63l-.78-2.03c-.07-.17-.21-.33-.51-.33h-1.02c-.26,0-.46.17-.34.5l1.03,2.67c-.34.09-.7.13-1.08.13-2.51,0-4.3-1.98-4.3-4.56s1.79-4.56,4.3-4.56,4.3,1.98,4.3,4.56c0,1.51-.61,2.8-1.6,3.62Z"/>
      <path class="cls-9" d="m408.88,353.57c.09.21-.02.41-.27.41h-1.12c-.21,0-.38-.1-.45-.31l-2.07-5.58-2.1,5.58c-.09.22-.24.31-.45.31h-1c-.21,0-.36-.09-.45-.31l-2.12-5.61-2.09,5.61c-.09.21-.24.31-.45.31h-1.05c-.21,0-.36-.1-.45-.31l-2.07-5.61-2.14,5.61c-.09.22-.24.31-.45.31h-1c-.21,0-.36-.09-.45-.31l-2.09-5.61-2.09,5.61c-.07.21-.24.31-.45.31h-1.09c-.26,0-.36-.21-.27-.41l2.84-7.42c.09-.22.24-.33.45-.33h1.22c.21,0,.36.1.45.33l2.04,5.42,2.02-5.42c.09-.22.24-.33.45-.33h1.2c.21,0,.36.1.45.33l2.01,5.42,2.01-5.42c.09-.22.24-.33.45-.33h1.21c.21,0,.36.1.45.33l2.03,5.42,1.99-5.42c.09-.22.24-.33.45-.33h1.22c.21,0,.36.1.45.33l2.82,7.42"/>
      <path class="cls-9" d="m361.84,345.83h-1c-.21,0-.39.17-.39.39v.68c-.51-.76-1.5-1.31-2.67-1.31-2.21,0-4.11,1.75-4.11,4.3s1.91,4.32,4.1,4.32c1.19,0,2.15-.55,2.69-1.31v.71c0,.21.19.38.39.38h1c.21,0,.38-.17.38-.38v-7.38c-.01-.22-.18-.39-.39-.39Zm-3.87,6.74c-1.46,0-2.5-1.19-2.5-2.67s1.03-2.65,2.5-2.65,2.5,1.15,2.5,2.65c-.01,1.49-1.06,2.67-2.5,2.67Z"/>
      <path class="cls-9" d="m373.8,352.83c.22.27.03.48-.09.57-.69.53-1.62.81-2.62.81-2.53,0-4.22-1.86-4.22-4.3s1.69-4.32,4.22-4.32c1,0,1.92.29,2.62.81.12.09.29.27.09.57l-.48.67c-.19.26-.41.19-.6.07-.45-.27-.97-.5-1.58-.5-1.48,0-2.46,1.19-2.46,2.7s.98,2.69,2.46,2.69c.62,0,1.1-.24,1.55-.5.19-.1.39-.19.6.09l.51.64h0Z"/>
      <path class="cls-9" d="m378.53,345.6c-2.38,0-4.28,1.87-4.28,4.3s1.91,4.3,4.28,4.3,4.28-1.86,4.28-4.3c0-2.42-1.9-4.3-4.28-4.3Zm0,6.96c-1.46,0-2.5-1.17-2.5-2.65s1.03-2.65,2.5-2.65,2.5,1.15,2.5,2.65-1.03,2.65-2.5,2.65Z"/>
      <path class="cls-9" d="m365.35,341.95c.22,0,.38.19.38.39v11.26c0,.21-.15.39-.38.39h-1c-.21,0-.39-.19-.39-.39v-11.25c0-.21.19-.39.39-.39h1"/>
    </g>
    <g class="cls-21">
      <path class="cls-9" d="m253.91,249.58h-4.74v.38h1.54v7.82c0,2.37-.64,3.01-2.11,3.01-.9,0-1.09-.7-1.09-1.03,0-.83-.06-1.41-.83-1.41s-.9.77-.9,1.03c0,1.09.51,1.92,2.63,1.92,2.56,0,3.91-.83,3.91-3.72v-7.63h1.54v-.38h.06Zm.64,9.94c-.26,0-.51.07-.64.26-.19.19-.26.38-.26.64s.06.45.26.64c.19.19.38.25.64.25s.45-.06.64-.25c.19-.19.26-.39.26-.64s-.06-.45-.26-.64-.38-.26-.64-.26h0Zm10.51,0c-.26,0-.45.07-.64.26-.19.19-.26.38-.26.64s.06.45.26.64c.19.19.38.25.64.25s.51-.06.64-.25c.19-.19.26-.39.26-.64s-.06-.45-.26-.64c-.19-.19-.38-.26-.64-.26h0Zm-3.33-9.94h-4.62v.38h1.35v8.98c0,.7-.06.9-.13,1.09-.06.26-.26.39-.58.51-.19.06-.51.13-.96.13v.38h5v-.38c-.45,0-.77-.06-.96-.13-.32-.13-.51-.32-.58-.51-.09-.23-.13-.46-.13-.7v-3.08h1.22c3.59,0,4.62-1.41,4.62-3.33s-.58-3.33-4.23-3.33h0Zm-.64,6.22h-.96v-5.77h.83c2.76,0,3.4,1.15,3.4,2.95s-1.09,2.82-3.27,2.82Zm19.68,4.17c-.08-.25-.13-.51-.13-.77v-9.23h1.22v-.38h-2.95c-.06.13-3.53,8.72-3.53,8.72l-.06.06q-.06,0-.06-.06s-3.72-8.66-3.72-8.72h-3.27v.38h1.41v9.74c0,.19-.06.39-.19.58-.13.19-.32.32-.51.38-.13.07-.38.07-.64.07v.38h3.21v-.38c-.26,0-.38-.06-.58-.06-.26-.06-.38-.19-.51-.38-.13-.13-.19-.32-.19-.58l-.06-.83v-7.69h.19s4.17,9.74,4.23,9.87h.32l3.97-9.81h.13v7.95c0,.32-.06.58-.13.83s-.26.38-.51.51c-.27.09-.55.13-.83.13v.38h4.49v-.38c-.28,0-.57-.04-.83-.13-.19-.13-.38-.32-.45-.58Zm6.09-7.31c-2.44,0-3.91,1.6-3.91,4.36,0,4.1,3.21,4.36,3.85,4.36,1.35,0,3.91-.83,3.91-4.42,0-2.82-1.67-4.3-3.85-4.3Zm-.06,8.21c-1.79,0-2.12-.9-2.12-3.78,0-2.24.13-3.91,2.12-3.91,2.12,0,2.12,1.73,2.12,3.78,0,2.89-.51,3.91-2.12,3.91Zm10.19-8.08c-1.41,0-1.92.83-2.31,1.73h-.13s-.19-1.28-.26-1.6h-2.82v.45h1.54v5.64c0,.58-.06.96-.19,1.22-.13.26-.51.45-1.09.45h-.26v.51h4.74v-.51h-.26c-.64,0-.9-.13-1.03-.38-.13-.26-.19-.64-.19-1.22v-3.08c0-.96.77-2.12,1.67-2.12.96,0,.9,1.41,1.99.83.51-.32.38-1.92-1.41-1.92Zm18.65,7.44c-.51,0-.64-.25-.7-.77v-4.49c0-.77-.13-1.22-.58-1.67-.45-.45-1.28-.64-2.5-.64-1.15,0-1.99.19-2.56.64-.51.39-.77.77-.77,1.35,0,.25.06.45.19.51.13.13.32.19.51.19.45,0,.71-.25.83-.83.07-.45.19-.7.39-.96.25-.25.64-.38,1.09-.38.58,0,1.03.13,1.22.45s.32.71.32,1.22v1.35c-1.48.13-5.07.45-4.87,3.14.06,1.03.96,1.99,2.18,1.99,1.35,0,2.18-.77,2.76-1.35.06.58.64,1.28,1.6,1.28,1.09,0,1.73-.51,1.8-1.86h-.26c0,.51-.32.83-.64.83h0Zm-2.44-.9v.06l-.06.06c-.77.71-1.41.96-1.86.96-1.15,0-1.35-.96-1.35-1.41,0-1.54,2.12-2.31,3.27-2.31,0,0,0,2.63,0,2.63Zm12.05.83c-.13-.26-.32-.64-.32-1.22v-3.72c0-.51-.06-1.03-.26-1.35-.19-.38-.51-.64-.83-.83-.38-.19-.77-.26-1.22-.26-1.67,0-2.31,1.03-2.69,1.6h-.13l-.32-1.47h-2.56v.45h1.28v5.64c0,.45-.06.77-.13.96-.06.25-.25.45-.45.51-.13.06-.38.13-.71.13v.51h4.04v-.51c-.38-.06-.71-.13-.83-.32-.13-.19-.26-.58-.26-1.15v-2.18c0-.9,0-1.8.32-2.31.32-.58.96-.9,1.6-.9s.96.19,1.15.58c.19.32.25,1.28.25,1.92v2.69c0,.45.07.77,0,.96-.06.25-.13.45-.32.58-.13.13-.38.13-.64.19v.51h3.91v-.51c-.45-.19-.77-.32-.9-.51Zm-18.33-7.89c-.26.06-.38.32-.51.64-.06.32-.19.51-.38.58-.19.06-.38.06-.58-.06-.45-.38-1.22-.83-2.63-.83-2.31,0-3.27,1.6-3.27,3.08,0,1.73.64,2.57,2.11,2.89.06,0,.06.13,0,.13-1.22.26-2.37.64-2.37,1.8,0,.71.38,1.09.96,1.35.58.26,1.41.38,2.44.38.9,0,1.54.06,1.92.06.39.05.76.18,1.09.38.26.19.38.51.38.9,0,.58-.32.96-.9,1.35-.58.32-1.28.45-2.24.45-.77,0-1.47-.06-2.05-.45-.45-.26-.51-.77-.45-1.15s-.06-.77-.51-.9c-.28-.06-.57.07-.7.32-.13.19-.19.45-.19.77,0,.96.77,1.41,1.35,1.6.9.26,1.48.32,2.24.32,1.09,0,1.92-.19,2.56-.45.64-.32,1.03-.7,1.28-1.15.26-.45.38-.9.38-1.35,0-.58-.13-1.09-.38-1.41-.83-1.09-1.99-.96-4.55-1.09-1.22,0-1.47-.26-1.47-.64,0-.58.45-.77,2.24-1.09,1.79-.26,3.46-.96,3.46-3.08,0-.64-.13-1.15-.32-1.54.39.06.71.06,1.03,0,.39-.13.58-.32.71-.51.13-.26.19-.51.06-.71.06-.51-.26-.7-.7-.58h0Zm-4.04,6.03c-1.09,0-1.67-.39-1.67-2.56,0-1.54.51-2.69,1.67-2.69,1.35,0,1.73,1.03,1.73,2.63,0,2.31-.7,2.63-1.73,2.63Z"/>
      <g>
        <circle class="cls-6" cx="285.97" cy="221.86" r="21.11"/>
        <g>
          <path class="cls-9" d="m276.67,216.41h-4.41v.36h1.43v7.27c0,2.21-.6,2.8-1.97,2.8-.83,0-1.01-.66-1.01-.95,0-.77-.06-1.31-.78-1.31s-.83.72-.83.95c0,1.01.48,1.79,2.44,1.79,2.38,0,3.64-.77,3.64-3.46v-7.09h1.43v-.36h.06Z"/>
          <path class="cls-9" d="m283.58,222.61c3.34,0,4.29-1.31,4.29-3.1s-.54-3.1-3.93-3.1h0s-4.29,0-4.29,0v.36h1.25v8.35c0,.66-.06.83-.12,1.01-.06.24-.24.36-.54.48-.18.06-.48.12-.89.12v.36h4.65v-.36c-.42,0-.72-.06-.89-.12-.3-.12-.48-.3-.54-.48-.08-.21-.12-.43-.12-.66v-2.86h1.13Zm-1.13-5.78h.78c2.56,0,3.16,1.07,3.16,2.74s-1.01,2.62-3.04,2.62h-.89v-5.36Z"/>
          <path class="cls-9" d="m301.64,226.07c-.08-.23-.12-.47-.12-.72v-8.58h1.13v-.36h-2.74c-.06.12-3.28,8.11-3.28,8.11l-.06.06q-.06,0-.06-.06s-3.46-8.05-3.46-8.11h-3.04v.36h1.31v9.06c0,.18-.06.36-.18.54-.12.18-.3.3-.48.36-.12.06-.36.06-.6.06v.36h2.98v-.36c-.24,0-.36-.06-.54-.06-.24-.06-.36-.18-.48-.36-.12-.12-.18-.3-.18-.54l-.06-.78v-7.15h.18s3.87,9.06,3.93,9.18h.3l3.7-9.12h.12v7.39c0,.3-.06.54-.12.77s-.24.36-.48.48c-.25.08-.51.12-.77.12v.36h4.17v-.36c-.26,0-.53-.04-.78-.12-.18-.12-.36-.3-.42-.54Z"/>
        </g>
      </g>
    </g>
  </g>
</svg>